<svg id="ebqON3XSWvr1" xmlns="http://www.w3.org/2000/svg" xmlns:xlink="http://www.w3.org/1999/xlink" viewBox="0 0 1024 1024" shape-rendering="geometricPrecision" text-rendering="geometricPrecision"><path d="M227.421768,711.999756c.308899-65.491882-1.624267-130.522522.802109-195.468201c3.53064-94.50238,28.235382-182.806427,82.578247-261.361145c49.822113-72.019806,116.930817-121.843185,198.599335-152.586822c2.722503-1.024865,5.053863-.840119,7.681305.158874c104.722839,39.817307,182.554809,109.355332,231.836425,210.220093c25.652039,52.502075,40.069642,108.221985,46.271363,166.205933c2.378235,22.235534,3.361328,44.525726,3.369201,66.863433.043457,122.48993.02649,244.979798.025635,367.469727-.000061,8.382873-.176391,8.613159-7.812317,4.760681-33.667053-16.986145-50.971557-44.469421-51.273803-82.119079-.347779-43.326966-.079285-86.658814-.082276-129.988587-.001526-21.49823.219238-42.999451-.064758-64.494018-.651367-49.295105-30.949219-90.477295-76.348328-104.194214-10.277405-3.105225-20.770813-4.687195-31.518432-4.683716-79.326661.02594-158.654908-.277832-237.97937.144531-51.947083.27655-95.102479,36.885559-105.060059,87.858826-1.606537,8.223938-1.858887,16.540283-1.858978,24.881836-.000794,63.161438-.074921,126.323059.019348,189.484314.034759,23.283996-6.902436,43.906921-22.332276,61.496643-8.36618,9.537292-18.41452,16.838012-29.935104,22.109436-6.595444,3.017944-6.903,2.821045-6.906418-4.275635-.018173-37.8302-.018295-75.660461-.019378-113.490662-.000855-29.497436.006027-58.994812.008529-88.992248Z"/></svg>
