<?xml version="1.0" encoding="utf-8"?>
<svg viewBox="0 0 507.004 507.005" xmlns="http://www.w3.org/2000/svg">
  <g class="" transform="translate(0,0)" style="">
    <path d="M 276.448 0.162 L 276.448 30.162 L 230.448 30.162 L 230.448 0.162 L 276.448 0.162 Z M 394.448 35.558 C 397.933 36.82 401.715 38.275 405.643 40.108 C 411.196 42.697 416.588 45.847 420.052 48.85 C 423.515 51.852 424.448 54.098 424.448 55.162 C 424.448 56.225 423.515 58.472 420.052 61.475 C 416.588 64.477 411.196 67.627 405.643 70.217 C 401.715 72.049 397.933 73.504 394.448 74.766 L 394.448 35.558 Z M 112.448 35.558 L 112.448 74.766 C 108.963 73.504 105.181 72.049 101.253 70.216 C 95.7 67.627 90.308 64.477 86.844 61.474 C 83.381 58.472 82.448 56.226 82.448 55.162 C 82.448 54.099 83.381 51.852 86.844 48.849 C 90.308 45.847 95.7 42.697 101.253 40.107 C 105.181 38.275 108.963 36.82 112.448 35.558 Z M 372.448 48.162 L 372.448 339.74 L 253.448 473.615 L 134.448 339.74 L 134.448 48.162 L 372.448 48.162 Z M 326.448 71.162 L 308.448 71.162 L 308.448 324.006 L 253.448 392.756 L 198.448 324.006 L 198.448 71.162 L 180.448 71.162 L 180.448 330.318 L 253.448 421.568 L 326.448 330.318 L 326.448 71.162 Z" fill-opacity="1"/>
    <path d="M 268.56 455.788 L 268.56 506.788 L 237.56 506.788 L 237.56 455.788 L 268.56 455.788 Z M 394.448 35.558 C 397.933 36.82 401.715 38.275 405.643 40.108 C 411.196 42.697 416.588 45.847 420.052 48.85 C 423.515 51.852 424.448 54.098 424.448 55.162 C 424.448 56.225 423.515 58.472 420.052 61.475 C 416.588 64.477 411.196 67.627 405.643 70.217 C 401.715 72.049 397.933 73.504 394.448 74.766 L 394.448 35.558 Z M 112.448 35.558 L 112.448 74.766 C 108.963 73.504 105.181 72.049 101.253 70.216 C 95.7 67.627 90.308 64.477 86.844 61.474 C 83.381 58.472 82.448 56.226 82.448 55.162 C 82.448 54.099 83.381 51.852 86.844 48.849 C 90.308 45.847 95.7 42.697 101.253 40.107 C 105.181 38.275 108.963 36.82 112.448 35.558 Z M 372.448 48.162 L 372.448 339.74 L 253.448 473.615 L 134.448 339.74 L 134.448 48.162 L 372.448 48.162 Z M 326.448 71.162 L 308.448 71.162 L 308.448 324.006 L 253.448 392.756 L 198.448 324.006 L 198.448 71.162 L 180.448 71.162 L 180.448 330.318 L 253.448 421.568 L 326.448 330.318 L 326.448 71.162 Z" fill-opacity="1"/>
  </g>
</svg>
