<?xml version="1.0" encoding="utf-8"?>
<svg class="ionicon" viewBox="0 0 512 512" xmlns="http://www.w3.org/2000/svg">
  <path d="M 408 48 L 104 48 C 64.254 48.044 32.044 80.254 32 120 L 32 312 C 32.044 351.746 64.254 383.956 104 384 L 128 384 L 128 448 C 127.997 460.317 141.328 468.018 151.996 461.863 C 152.791 461.404 153.545 460.878 154.25 460.29 L 245.74 384 L 408 384 C 447.746 383.956 479.956 351.746 480 312 L 480 120 C 479.956 80.254 447.746 48.044 408 48 Z M 288 231.039 C 288.242 274.03 223.511 277.301 223.561 229.78 C 223.604 188.575 223.832 174.677 223.832 118.286 C 223.832 72.34 287.11 71.226 287.992 118 C 289.085 176.015 287.968 225.422 288 231.039 Z M 256 349 C 231.366 349 215.97 322.333 228.287 301 C 240.604 279.667 271.396 279.667 283.713 301 C 286.521 305.865 288 311.383 288 317 C 288 334.673 273.673 349 256 349 Z"/>
</svg>