<?xml version="1.0" encoding="utf-8"?>
<svg viewBox="0 0 512 512" style="" xmlns="http://www.w3.org/2000/svg">
  <g class="" transform="translate(0,0)" style="">
    <path d="M 29.018 18.875 C 26.388 29.172 29.065 40.595 37.062 48.595 C 47.097 58.629 62.522 60.291 74.352 53.595 C 80.266 58.941 86.038 63.968 91.709 68.715 C 91.371 70.533 91.187 72.402 91.187 74.312 C 91.187 91.336 105.195 105.312 122.217 105.312 C 127.134 105.312 131.793 104.142 135.937 102.072 C 141.692 105.982 147.499 109.787 153.419 113.552 C 152.945 115.694 152.687 117.912 152.687 120.187 C 152.687 137.211 166.695 151.187 183.717 151.187 C 191.294 151.187 198.267 148.415 203.681 143.842 L 217.554 151.967 C 217.291 153.502 217.14 155.08 217.14 156.699 L 217.14 195.603 L 286.59 195.037 L 286.59 156.7 C 286.59 155.717 286.523 154.754 286.418 153.803 C 291.811 150.733 297.073 147.723 302.115 144.809 C 307.341 148.801 313.851 151.186 320.877 151.186 C 337.9 151.186 351.877 137.21 351.877 120.186 C 351.877 118.319 351.701 116.491 351.379 114.71 C 357.426 110.723 363.391 106.652 369.357 102.412 C 373.327 104.267 377.737 105.312 382.377 105.312 C 399.4 105.312 413.407 91.336 413.407 74.312 C 413.407 72.339 413.213 70.409 412.854 68.532 C 418.127 64.082 423.551 59.392 429.172 54.416 C 440.772 60.13 455.307 58.194 464.908 48.594 C 472.906 40.596 475.583 29.174 472.953 18.874 L 452.54 18.874 C 456.558 23.762 456.276 30.79 451.69 35.374 C 446.803 40.262 439.14 40.264 434.253 35.374 C 429.668 30.789 429.386 23.76 433.403 18.874 L 412.989 18.874 C 411.074 26.374 411.989 34.466 415.709 41.402 C 411.589 45.038 407.586 48.507 403.675 51.836 C 398.1 46.548 390.592 43.281 382.378 43.281 C 365.354 43.281 351.348 57.291 351.348 74.313 C 351.348 79.763 352.786 84.896 355.296 89.363 C 351.051 92.321 346.796 95.203 342.499 98.036 C 336.899 92.556 329.259 89.156 320.879 89.156 C 303.854 89.156 289.847 103.166 289.847 120.188 C 289.847 123.354 290.331 126.413 291.23 129.298 C 287 131.743 282.486 134.326 277.983 136.903 C 276.955 135.909 275.871 134.993 274.737 134.187 C 268.045 129.419 260.017 127.305 252.023 127.173 C 244.027 127.041 235.873 128.891 229.053 133.677 C 228.246 134.242 227.467 134.863 226.716 135.527 C 222.349 132.954 217.952 130.363 213.769 127.905 C 214.411 125.435 214.753 122.849 214.753 120.189 C 214.753 103.165 200.746 89.157 183.723 89.157 C 175.746 89.157 168.433 92.232 162.911 97.251 C 158.441 94.413 154.017 91.561 149.663 88.655 C 151.93 84.358 153.223 79.477 153.223 74.315 C 153.223 57.29 139.246 43.282 122.223 43.282 C 113.963 43.282 106.419 46.586 100.835 51.924 C 96.32 48.097 91.735 44.091 87.045 39.857 C 90.108 33.282 90.76 25.827 88.985 18.877 L 68.568 18.877 C 72.586 23.764 72.304 30.792 67.718 35.377 C 62.831 40.264 55.168 40.265 50.281 35.377 C 45.697 30.791 45.416 23.762 49.433 18.877 L 29.018 18.877 L 29.018 18.875 Z M 122.218 61.969 C 129.142 61.969 134.531 67.389 134.531 74.312 C 134.531 81.235 129.144 86.624 122.221 86.624 C 115.295 86.624 109.876 81.234 109.876 74.311 C 109.876 67.388 115.296 61.968 122.22 61.968 L 122.218 61.969 Z M 382.375 61.969 C 389.299 61.969 394.719 67.389 394.719 74.312 C 394.719 81.235 389.299 86.624 382.374 86.624 C 375.45 86.624 370.03 81.234 370.03 74.311 C 370.03 67.388 375.45 61.968 382.375 61.968 L 382.375 61.969 Z M 183.72 107.843 C 190.642 107.843 196.063 113.263 196.063 120.187 C 196.063 127.11 190.643 132.499 183.719 132.499 C 176.793 132.499 171.374 127.109 171.374 120.186 C 171.374 113.263 176.794 107.843 183.718 107.843 L 183.72 107.843 Z M 320.875 107.843 C 327.799 107.843 333.188 113.263 333.188 120.187 C 333.188 127.11 327.798 132.499 320.875 132.499 C 313.951 132.499 308.531 127.109 308.531 120.186 C 308.531 113.263 313.951 107.843 320.876 107.843 L 320.875 107.843 Z M 251.711 145.856 C 256.406 145.934 261.066 147.392 263.891 149.406 C 266.717 151.418 267.901 153.211 267.901 156.698 L 267.901 184.218 L 252.355 175.218 L 235.829 184.783 L 235.829 156.7 C 235.829 152.61 237.087 150.865 239.782 148.975 C 242.478 147.085 247.019 145.78 251.712 145.857 L 251.711 145.856 Z M 243.589 201.886 L 243.589 201.886 L 243.589 201.886 Z M 262.276 202.556 L 262.277 202.556 L 262.276 202.556 Z" fill-opacity="1"/>
  </g>
  <g class="" style="" transform="matrix(0.664188, 0, 0, 0.664188, 387.936127, 284.53067)">
    <path d="M -84.277 3.119 L -49.051 -6.592 L -49.067 -40.117 L -84.277 -49.86 C -87.423 -64.334 -93.162 -77.832 -100.921 -89.915 L -82.864 -121.74 L -106.592 -145.436 L -138.366 -127.394 C -150.485 -135.17 -163.983 -140.892 -178.471 -144.073 L -188.216 -179.247 L -221.701 -179.247 L -231.462 -144.073 C -245.918 -140.892 -259.433 -135.169 -271.518 -127.395 L -303.326 -145.436 L -327.038 -121.722 L -308.996 -89.949 C -316.755 -77.831 -322.478 -64.333 -325.674 -49.86 L -360.831 -40.116 L -360.831 -6.592 L -325.674 3.119 C -322.533 17.364 -316.887 30.937 -308.997 43.206 L -327.037 75.032 L -303.325 98.711 L -271.518 80.687 C -259.247 88.566 -245.673 94.202 -231.43 97.331 L -221.701 132.523 L -188.2 132.507 L -178.472 97.332 C -163.983 94.151 -150.485 88.43 -138.366 80.67 L -106.56 98.73 L -82.897 75.016 L -100.921 43.191 C -93.18 31.09 -87.439 17.61 -84.277 3.119 Z M -241.561 -111.659 L -168.324 -111.659 L -116.555 -59.874 L -116.555 -53.789 L -153.011 -53.789 C -163.482 -71.588 -182.839 -83.562 -204.944 -83.562 C -227.047 -83.562 -246.404 -71.588 -256.874 -53.789 L -293.346 -53.789 L -293.346 -59.874 L -241.561 -111.659 Z M -204.944 -53.143 C -188.501 -53.143 -175.157 -39.796 -175.157 -23.37 C -175.157 -6.895 -188.5 6.436 -204.944 6.436 C -221.381 6.436 -234.728 -6.894 -234.728 -23.37 C -234.728 -39.796 -221.381 -53.143 -204.944 -53.143 Z M -168.324 65.186 L -241.561 65.186 L -293.346 13.401 L -293.346 7.049 L -256.927 7.049 C -254.318 11.49 -251.153 15.58 -247.508 19.22 C -236.137 30.592 -221.019 36.853 -204.943 36.853 C -188.862 36.853 -173.744 30.591 -162.373 19.219 C -158.729 15.579 -155.564 11.49 -152.955 7.049 L -116.555 7.049 L -116.555 13.401 L -168.324 65.186 Z" fill-opacity="1" style=""/>
  </g>
</svg>
