<?xml version="1.0" encoding="utf-8"?>
<svg viewBox="0 0 512 512" style="" xmlns="http://www.w3.org/2000/svg">
  <g>
    <g class="" transform="matrix(1, 0, 0, 1, -15, 0)" style="">
      <path d="M 244.734 20.443 C 244.117 20.425 243.503 20.536 242.932 20.77 C 215.196 32.313 195.637 78.265 213.033 97.441 C 246.553 136.387 285.868 153.014 303.18 225.875 C 305.787 246.025 304.398 265.969 303.18 286.125 C 285.868 358.986 246.553 375.613 213.033 414.559 C 195.637 433.735 215.196 479.687 242.932 491.23 C 251.97 494.992 270.957 465.065 264.684 466.021 C 248.344 468.512 226.884 445.08 236.297 437.091 C 274.767 404.441 341.787 337.036 336.574 301.539 C 334.363 286.482 327.224 271.179 321 256 C 327.225 240.82 334.363 225.518 336.574 210.46 C 341.788 174.964 274.768 107.559 236.297 74.908 C 226.885 66.92 248.344 43.488 264.684 45.978 C 270.565 46.875 254.244 20.628 244.734 20.443 Z M 216 125.574 L 216 386.398 L 234 368.868 L 234 143.104 L 216 125.574 Z" fill-opacity="1"/>
    </g>
  </g>
</svg>
