<?xml version="1.0" encoding="utf-8"?>
<svg viewBox="0 0 512 512" style="" xmlns="http://www.w3.org/2000/svg">
  <g class="" transform="translate(0,0)" style="">
    <path d="M 134.007 351.713 C 136.977 357.798 156.163 376.81 162.293 379.72 L 107.28 435.07 C 102.251 422.123 91.938 411.935 78.93 407.064 L 134.007 351.713 Z M 353.364 101.478 C 353.364 101.478 276.597 191.594 231.402 237.32 C 222.272 246.565 191.11 274.675 173.099 290.875 L 222.322 339.515 C 238.302 321.275 266.049 289.771 275.18 280.537 C 320.334 234.811 481 28.492 481 28.492 C 481 28.492 407.284 46.902 353.364 101.478 Z M 83.656 430.594 C 66.725 413.864 38.033 421.735 32.009 444.763 C 25.986 467.79 47.149 488.703 70.103 482.406 C 75.337 480.97 80.101 478.182 83.916 474.321 C 95.977 462.198 95.86 442.573 83.656 430.594 Z M 129.465 314.416 C 121.501 322.484 195.608 387.181 199.283 383.431 L 220.168 362.328 L 150.288 293.281 L 129.465 314.416 Z" fill-opacity="1"/>
  </g>
</svg>
