<svg id="eWMUl0dq2K61" xmlns="http://www.w3.org/2000/svg" xmlns:xlink="http://www.w3.org/1999/xlink" viewBox="0 0 512 512" shape-rendering="geometricPrecision" text-rendering="geometricPrecision"><g transform="translate(-70.836998 24.446054)"><path d="M167.097,69.202c-23.86-.12-47.931,5.62-72.762,21.235c65.817-15.283,120.294-3.244,177.727,4.298-35.673-12.666-70.093-25.358-104.965-25.533ZM421.356,464.971c-.013,2.873,45.768-50.04-1.83-75.888-40.976-16.608-81.709-30.476-119.487-37.927-97.554-48.787-20.561-255.612-20.561-255.612c0-2.866-9.53,28.375-51.26,29.505-20.306.55-38.106-.284-53.619-1.974l-.636,11.774-27.21,19.376-19.222-13.691v-26.59c-29.168-8.648-41.428-19.112-41.428-19.112-1.376024-.000265-2.695767.546241-3.668763,1.519237s-1.519502,2.292739-1.519237,3.668763s23.388,141.765,6.657,239.317c-3.346,14.517-6.428,28.433-9.676,42.796-.185.818,70.94,19.051878,68.858,26.185878C257.29,412.698878,373.32,464.165,373.763,466.888s-186.906-80.582-295.867-84.755c.296,2.38-6.196,36.347-5.252,38.577.029-.004.055-.004.082-.006c11.513,13.803,30.986,17.375,44.736,16.807C184.128,434.091,378.69,492.8,378.69,492.8c63.719-18.675,56.140273-64.345,43.810273-72.096M155.432,160.405l17.835-12.698m-45.736,5.192l10.543,7.506m8.68,6.182" transform="translate(0-1.049207)"/></g><g transform="matrix(.913743 0 0 0.913743 119.019698-16.585306)"><path d="M167.097,73.922c-23.86-.12-47.931,5.62-72.762,21.235c65.817-15.283,120.294-3.244,177.727,4.298-35.673-12.666-70.093-25.358-104.965-25.533ZM421.356,464.971c-.013,2.873,45.768-50.04-1.83-75.888-40.976-16.608-81.709-30.476-119.487-37.927-97.554-48.787-20.561-250.892-20.561-250.892c0-2.866-9.53,28.375-51.26,29.505-20.306.55-38.106-.284-53.619-1.974l-.636,11.774-27.21,19.376-19.222-13.691v-26.59c-29.168-8.648-41.428-19.112-41.428-19.112-1.376024-.000265-2.695767.546241-3.668763,1.519237s-1.519502,2.292739-1.519237,3.668763s23.388,137.045,6.657,234.597c-3.346,14.517-6.428,28.433-9.676,42.796-.185.818,70.94,19.051878,68.858,26.185878C257.29,412.698878,373.32,464.165,373.763,466.888s-186.906-80.582-295.867-84.755c.296,2.38-6.196,36.347-5.252,38.577.029-.004.055-.004.082-.006c11.513,13.803,30.986,17.375,44.736,16.807C184.128,434.091,378.69,492.8,378.69,492.8c63.719-18.675,56.140273-64.345,43.810273-72.096M155.432,165.125l17.835-12.698m-45.736,5.192l10.543,7.506m8.68,6.182" transform="translate(0-1.049207)"/></g></svg>
