<svg id="eO5WGAlPH0a1" xmlns="http://www.w3.org/2000/svg" xmlns:xlink="http://www.w3.org/1999/xlink" viewBox="0 0 512 512" shape-rendering="geometricPrecision" text-rendering="geometricPrecision"><g transform="translate(77.424439 15.941128)"><g transform="translate(0 0.000001)"><g><g><g><path d="M198.606,218.941l-19.76,3.2c-11.916,81.194-23.63,162.428-54.632,239.807c22.136-7.036,39.147-19.277,49.658-33.092l16.552,66.186c36.794-83.71,43.005-166.034,54.89-248.614l-8.595-11.8-29.88,18.442-8.232-34.127-.001-.002Z" transform="translate(-30.781564-14.924394)"/><path d="M190.424,495.042c36.794-83.71,43.005-166.034,54.89-248.614l-8.595-11.8-29.88,18.442-8.232-34.127-.001-.002-19.76,3.2c-11.916,81.194-23.63,162.428-54.632,239.807" transform="matrix(-.999999-.001413 0.001413-.999999 387.233073 495.388245)"/></g></g></g></g></g></svg>
