<svg id="eSIxMli8Nmq1" xmlns="http://www.w3.org/2000/svg" xmlns:xlink="http://www.w3.org/1999/xlink" viewBox="0 0 512 512" shape-rendering="geometricPrecision" text-rendering="geometricPrecision"><g transform="matrix(1.05546 0 0 1.05546-19.0502-18.3621)"><path d="M433.24,64.401c-29.99,36.36-46.84,89.07-71.39,142.416l36.558,36.56c29.22-70.24,45.014-148.09,100.262-221.507-18.54,4.97-33.69,13.015-46.604,23.603l-.02-.506"/><path d="M48.348,450.107c-11.712,13.235-20.716,28.85-25.823,47.914c74.198-55.834,152.88-71.602,223.606-101.383l-35.913-35.914c-53.122,25.232-105.774,42.49-142.547,71.347"/><path d="M350.566,221.966c-8.162,13.275-17.044,25.835-26.586,37.727l30.727,25.903c11.16-8.75,22.568-17.176,34.06-25.432l-38.2-38.2-.001.002Zm0,0c-13.42,10.98-111.654,116.7-126.488,126.188l37.47,37.47c8.748-14.57,116.512-112.984,127.219-125.46l-38.201-38.198Z"/></g><rect width="379.473093" height="4.875262" rx="0" ry="0" transform="matrix(1.068986-1.069825 1.273292 1.272292 43.431604 446.458547)" stroke-width="0"/></svg>
