<svg id="exOJ4iTlVjw1" xmlns="http://www.w3.org/2000/svg" xmlns:xlink="http://www.w3.org/1999/xlink" viewBox="0 0 512 512" shape-rendering="geometricPrecision" text-rendering="geometricPrecision"><g><path d="M164,32.14c-7,0-13.7,2.8-18.8,7.74-5,4.95-7.8,11.72-7.8,18.82l.1,30.28v11.72c-5.5,1.6-9.8,6.7-9.8,12.8c0,7.5,6.2,13.5,13.6,13.5h16.5v8.6l-24.3,16.7c-17.3,12-27.5,31.4-27.5,52.2v211c0,35.5,29,64.4,64.5,64.4h171.1c35.5,0,64.4-28.9,64.4-64.4v-211c0-20.8-10.2-40.2-27.5-52.2l-24.2-16.7v-8.6h16.5c7.3,0,13.3-6,13.3-13.5c0-6.1-4.1-11.2-9.6-12.8v-42c0-7.1-2.8-13.87-7.8-18.82-5.1-4.94-11.8-7.74-18.8-7.74h-183.9Zm0,17.85h184c2.2,0,4.5.97,6.1,2.58c1.3,1.3,2.1,2.9,2.3,4.73L244.3,69.45c-5,.54-8.5,4.95-8,9.9.5,4.98,5,8.5,9.8,7.98L356.5,75.26v24.84h-201.1v-2.94l44-4.76c5-.62,8.5-4.97,8-9.94-.5-4.94-5-8.49-9.8-7.96l-42.2,4.63v-20.43c0-2.37,1-4.51,2.5-6.13c1.6-1.61,4-2.58,6.1-2.58ZM180.1,127h151.7v20.4l34.1,23.4c11,7.6,17.7,20.3,17.7,33.7v211c0,23.6-18.9,41.9-42,41.9h-171.1c-23.2,0-42-18.3-42-41.9v-211c0-13.4,6.6-26.1,17.6-33.7l34-23.4v-20.4Z"/></g><g transform="matrix(.372687-.43622 0.47184 0.403119 54.422437 302.220266)"><path d="M241.063,54.406c-2.31.008-4.61.032-6.907.094-1.805.05-3.61.106-5.406.188-8.814,1.567-12.884,5.426-15.094,9.843-2.435,4.87-2.34,11.423.375,17.25c2.717,5.83,7.7,10.596,14.657,12.376c6.958,1.78,16.536.86,29.125-7.187l10.063,15.75c-15.818,10.11-31.124,12.777-43.813,9.53-12.688-3.247-22.103-12.123-26.968-22.563-4.584-9.836-5.426-21.376-1.03-31.624-42.917,6.94-81.777,23.398-111.626,46.562-9.81,10.688-10.77,23.11-6.47,31.594c4.83,9.526,16.21,16.48,38.97,9.28l5.656,17.813c-28.58,9.04-52.137-.588-61.28-18.625-2.23-4.397-3.592-9.156-4.127-14.063-4.814,5.712-9.16,11.658-13,17.844l.126.06c-8.614,19.616-8.81,33.203-5.376,42.032c3.436,8.83,10.635,14.44,21.72,17.532c22.168,6.18,58.065-1.277,83.343-20.156c10.82-8.08,21.077-27.677,21.97-42.875.445-7.6-1.165-13.604-4.345-17.438s-8.272-6.703-18.813-6.594l-.187-18.686c14.487-.15,26.25,4.754,33.375,13.344c7.124,8.59,9.26,19.652,8.625,30.468-1.27,21.633-12.595,44.172-29.438,56.75-29.876,22.314-69.336,31.606-99.53,23.188-13.988-3.9-26.37-12.386-32.75-25.53-9.546,45.446,4.323,87.66,30.718,116.874c3.45,3.82,7.122,7.43,10.97,10.78-2.754-7.887-4.016-16.1-3.72-24.093.53-14.325,6.082-28.346,17.22-38.03c9.134-7.946,21.752-12.53,36.843-12.5c1.006,0,2.034.018,3.062.06c2.35.1,4.763.304,7.22.626l-2.44,18.532c-15.588-2.048-25.705,1.522-32.436,7.375-6.73,5.854-10.443,14.614-10.813,24.625-.74,20.024,12.07,43.406,39.69,50.188l-.032.188c27.192,5.19,57.536.372,88-18.22.018-.012.043-.017.062-.03c6.34-4.45,9.755-8.808,11.438-12.563c1.985-4.432,1.943-8.292.53-12.438-2.824-8.29-12.94-16.812-22.218-19.187-15.002-3.84-24.532,1.436-29,7.72-4.468,6.28-4.74,12.45,2.156,17.81l-11.47,14.75c-14.187-11.033-15.092-30.487-5.905-43.405c6.892-9.688,18.985-16.326,33.564-16.75.607-.018,1.228-.036,1.844-.03c4.306.03,8.79.622,13.437,1.81c15.505,3.97,29.84,15.277,35.28,31.25c1.416,4.155,2.09,8.69,1.876,13.314c16.71-8.538,34.332-16.12,52.282-21.814c30.156-13.78,43.23-37.938,42.72-58.28-.515-20.493-13.187-37.74-42.376-40.626l1.844-18.594c36.666,3.626,58.462,29.848,59.188,58.75.422,16.84-5.754,34.363-18.188,49.28c16.072-1.8,32.044-1.495,47.53,1.627-3.152-6.472-4.68-13.478-4.467-20.438.677-22.036,19.42-42.593,48.875-42.906c1.963-.022,3.974.053,6.03.218l-1.5,18.625c-24.927-1.998-34.3,11.086-34.718,24.656-.412,13.42,8.545,28.442,34.22,30.436c28.3.25,48.588-15.098,58.53-37.906c13.31-30.536,6.997-76.317-34.844-118.188-.792-.793-1.578-1.593-2.375-2.375-.444,3.792-1.424,7.443-2.842,10.844-7.25,17.39-24.233,29.128-41.875,32.407-24.335,4.522-44.29-5.347-53.5-20.406-9.21-15.057-6.792-36.35,9.78-47.56l10.47,15.5c-8.913,6.028-9.28,14.19-4.313,22.31c4.967,8.122,16.17,15.156,34.156,11.814c11.306-2.102,23.896-11.33,28.03-21.25c2.07-4.96,2.47-9.862.408-15.47-1.675-4.555-5.187-9.764-11.72-15.25l-.187-.155c-27.316-20.587-56.338-35.393-85.75-45.157.018.032.045.06.063.093c6.684,12.22,7.18,26.082,3.063,38.344-8.233,24.525-34.07,43.848-66.032,42.78-6.948-.23-13.56,3.12-19.186,9.657-5.627,6.537-9.735,16.113-10.688,26.313-1.905,20.4,6.923,42.886,41.344,54L277,258.28c-41.083-13.264-56.83-45.546-54.22-73.5c1.307-13.975,6.706-26.962,15.157-36.78c8.452-9.818,20.475-16.603,33.97-16.156c24.04.802,42.323-14.084,47.687-30.063c2.682-7.988,2.335-15.937-1.75-23.405-3.968-7.252-11.83-14.423-25.906-19.656-17.114-2.967-34.16-4.367-50.875-4.314Zm38.498,313.158c26.064-17.153,48.406-38.303,62.72-61.22h-.001c-41.915,3.41-87.366,23.4-125.28,46.562-55.98,34.198-114.89,26.733-156.688-4.28c16.444,58.844,74.712,70.788,135.5,55.905c6.083-2.285,12.06-6.538,17.157-12.03c7.057-7.607,12.17-17.47,13.78-25.625l18.344,3.625c-2.445,12.383-9.078,24.666-18.406,34.72" transform="matrix(.986512 0.16369-.16369 0.986512 7.955397-8.296483)"/></g></svg>
