<?xml version="1.0" encoding="utf-8"?>
<svg viewBox="0 0 512 512" style="" xmlns="http://www.w3.org/2000/svg">
  <g transform="translate(0,0)" style="">
    <path d="M 144.2 19.03 C 133.5 19.03 123.9 24.39 118.1 32.55 C 104 31.4 89.83 32.31 76.9 35.99 C 71 29.36 62.4 25.18 52.9 25.18 C 35.3 25.18 20.8 39.67 20.8 57.3 C 20.8 67.1 25.3 75.92 32.3 81.83 C 30.3 92 30.4 101.3 32.1 109.8 C 24 115.6 18.8 125.1 18.8 135.7 C 18.8 153.3 33.3 167.8 50.9 167.8 C 59 167.8 66.5 164.8 72.1 159.7 C 76.8 162.8 81.5 165.7 86.4 168.6 C 86.1 170.1 86 171.7 86 173.3 C 86 190.9 100.5 205.4 118.1 205.4 C 123.8 205.4 129.2 203.9 133.8 201.2 C 137.5 204.7 140.8 208.4 143.8 212.3 C 138.1 218.1 134.6 226 134.6 234.7 C 134.6 249.9 145.4 262.7 159.6 266 C 159.3 273 158.4 280.6 156.7 288.9 C 149 296.5 144.2 307.1 144.2 318.7 C 144.2 330.1 148.8 340.5 156.2 348.1 L 121.228 454.001 L 152.133 436.183 C 155.533 407.983 174.3 368.1 177.1 343.9 C 189 338.5 198.7 333.9 209.5 329.1 C 236.6 340.5 214.957 333.031 242.356 339.938 L 270.898 319.356 L 228.2 317.3 C 227.8 304.5 221.5 293.1 212.1 285.7 C 218.2 273.3 224.6 263.2 231.6 255 C 235.4 256.7 239.7 257.6 244.2 257.6 C 261.8 257.6 276.3 243.1 276.3 225.5 C 276.3 224.6 276.3 223.7 276.2 222.9 C 283.5 219.9 291.1 217.3 299 214.8 C 304.7 223.7 314.7 229.6 325.9 229.6 C 343.6 229.6 358 215.1 358 197.4 L 358 196.7 C 365.5 194 373.1 190.8 380.8 187.2 C 386.7 194.1 395.5 198.6 405.2 198.6 C 422.8 198.6 437.3 184.1 437.3 166.4 C 437.3 161.6 436.2 156.9 434.2 152.7 C 440.6 147.4 447.1 141.2 451.9 135.1 C 454.8 136 457.9 136.4 461.1 136.4 C 478.7 136.4 493.2 121.9 493.2 104.3 C 493.2 87.2 479.6 73.04 462.7 72.21 C 451.7 55.72 428.4 47.72 413.2 52.21 C 407.3 44.39 397.9 39.3 387.5 39.3 C 369.8 39.3 355.3 53.8 355.3 71.43 C 355.3 74.1 355.7 76.72 356.3 79.21 C 351.7 80.69 347 81.9 342.1 82.9 C 337.4 70.94 325.7 62.4 312.2 62.4 C 297.9 62.4 285.8 71.8 281.6 84.68 C 273.5 83.69 264.9 82.29 257.9 80.87 C 257.3 63.79 243.1 49.99 225.8 49.99 C 215.3 49.99 205.8 55.19 200 63.15 C 191.8 59.86 183.9 56.33 176.3 52.59 L 176.3 51.15 C 176.3 33.52 161.8 19.03 144.2 19.03 Z M 144.2 37.7 C 151.7 37.7 157.6 43.61 157.6 51.14 C 157.6 58.67 151.7 64.58 144.2 64.58 C 136.7 64.58 130.7 58.67 130.7 51.14 C 130.7 43.61 136.7 37.7 144.2 37.7 Z M 52.9 43.86 C 60.5 43.86 66.4 49.77 66.4 57.3 C 66.4 64.83 60.5 70.73 52.9 70.73 C 45.4 70.73 39.5 64.83 39.5 57.3 C 39.5 49.77 45.4 43.86 52.9 43.86 Z M 112.1 50.95 L 112.1 51.14 C 112.1 68.77 126.6 83.27 144.2 83.27 C 154.7 83.27 164.1 78.15 170 70.27 C 177.6 73.99 185.6 77.52 193.7 80.8 L 193.7 82.08 C 193.7 99.71 208.2 114.2 225.8 114.2 C 237.3 114.2 247.4 108.1 253.1 98.95 C 263.2 100.8 272.2 102.6 281.3 103.5 C 285.3 116.8 297.6 126.6 312.2 126.6 C 327.3 126.6 340.1 115.9 343.4 101.7 C 351.3 100.2 358.9 98.2 366.3 95.55 C 372 100.5 379.4 103.6 387.5 103.6 C 405.1 103.6 419.6 89.05 419.6 71.42 L 419.6 69.67 C 429.8 68.28 438.2 71.74 443.5 77.48 C 434.8 83.25 428.9 93.13 428.9 104.3 C 428.9 112.1 431.7 119.1 436.4 124.8 C 431.7 130.3 426.8 134.5 421.7 138.9 C 416.9 136 411.2 134.3 405.2 134.3 C 387.6 134.3 373.1 148.8 373.1 166.4 C 373.1 167.7 373.2 168.9 373.3 170.2 C 366.2 173.5 359.1 176.4 352.1 179 C 346.3 170.7 336.7 165.3 325.9 165.3 C 308.5 165.3 294.1 179.5 293.8 196.9 C 285.6 199.4 277.5 202.4 269.5 205.8 C 263.6 198.3 254.4 193.4 244.2 193.4 C 226.6 193.4 212.1 207.8 212.1 225.5 C 212.1 232.1 214.1 238.3 217.6 243.4 C 209.5 252.8 202 264.1 195.2 277.7 C 189.1 276.5 183 276.3 177.4 277.7 C 177.9 273.2 178.2 268.8 178.2 264.7 C 190.2 260 198.8 248.3 198.8 234.7 C 198.8 217.1 184.3 202.6 166.7 202.6 C 164.5 202.6 162.4 202.8 160.4 203.2 C 156.3 197.5 151.7 192.4 146.8 187.7 C 149 183.3 150.2 178.4 150.2 173.3 C 150.2 155.6 135.7 141.2 118.1 141.2 C 108.8 141.2 100.4 145.2 94.5 151.6 C 90.2 148.9 86 146.3 82 143.7 C 82.7 141.1 83 138.5 83 135.7 C 83 118.1 68.5 103.6 50.9 103.6 C 50.4 103.6 49.9 103.6 49.4 103.7 C 48.8 99.35 49 94.63 49.9 89.27 C 50.9 89.37 51.9 89.42 52.9 89.42 C 70.6 89.42 85.1 74.93 85.1 57.3 C 85.1 55.92 85 54.54 84.8 53.21 C 93.93 51.05 103.2 50.46 112.1 50.95 Z M 387.5 57.99 C 395 57.99 400.9 63.89 400.9 71.42 C 400.9 78.95 395 84.86 387.5 84.86 C 379.9 84.86 374 78.95 374 71.42 C 374 63.89 379.9 57.99 387.5 57.99 Z M 225.8 68.67 C 233.4 68.67 239.2 74.55 239.2 82.08 C 239.2 89.61 233.4 95.51 225.8 95.51 C 218.3 95.51 212.4 89.61 212.4 82.08 C 212.4 74.55 218.3 68.67 225.8 68.67 Z M 312.2 81.08 C 319.7 81.08 325.6 86.95 325.6 94.48 C 325.6 102.1 319.7 108 312.2 108 C 304.6 108 298.7 102.1 298.7 94.48 C 298.7 86.95 304.6 81.08 312.2 81.08 Z M 461.1 90.86 C 468.6 90.86 474.5 96.77 474.5 104.3 C 474.5 111.9 468.6 117.7 461.1 117.7 C 453.5 117.7 447.7 111.9 447.7 104.3 C 447.7 96.77 453.5 90.86 461.1 90.86 Z M 50.9 122.2 C 58.4 122.2 64.4 128.2 64.4 135.7 C 64.4 143.2 58.4 149.2 50.9 149.2 C 43.4 149.2 37.5 143.2 37.5 135.7 C 37.5 128.2 43.4 122.2 50.9 122.2 Z M 405.2 153 C 412.7 153 418.7 158.9 418.7 166.4 C 418.7 174 412.7 179.9 405.2 179.9 C 397.7 179.9 391.8 174 391.8 166.4 C 391.8 158.9 397.7 153 405.2 153 Z M 118.1 159.8 C 125.6 159.8 131.6 165.7 131.6 173.3 C 131.6 180.8 125.6 186.7 118.1 186.7 C 110.6 186.7 104.7 180.8 104.7 173.3 C 104.7 165.7 110.6 159.8 118.1 159.8 Z M 325.9 184 C 333.5 184 339.3 189.9 339.3 197.4 C 339.3 205 333.5 210.9 325.9 210.9 C 318.4 210.9 312.5 205 312.5 197.4 C 312.5 189.9 318.4 184 325.9 184 Z M 244.2 212.1 C 251.7 212.1 257.6 217.9 257.6 225.5 C 257.6 233 251.7 238.9 244.2 238.9 C 236.7 238.9 230.8 233 230.8 225.5 C 230.8 217.9 236.7 212.1 244.2 212.1 Z M 166.7 221.2 C 174.2 221.2 180.1 227.2 180.1 234.7 C 180.1 242.2 174.2 248.1 166.7 248.1 C 159.2 248.1 153.3 242.2 153.3 234.7 C 153.3 227.2 159.2 221.2 166.7 221.2 Z M 186.2 295.4 C 194.3 296.5 203.3 300.6 207.1 308.3 C 187 315.7 177.5 319.1 163.6 324.6 C 161.8 313.7 163.2 304.4 173.6 299.1 C 177.5 297.1 181.9 294.8 186.2 295.4 Z M 267.13 382.206 L 251.83 389.206 L 229.896 419.544 L 282.196 422.744 L 298.72 381.825 L 267.13 382.206 Z M 392.986 467.297 L 381.931 421.977 L 350.43 454.564 L 333.158 502.365 L 392.986 467.297 Z M 188.706 477.433 L 154.111 507.898 L 273.8 508 L 243.3 477.134 L 188.706 477.433 Z" fill-opacity="1"/>
  </g>
</svg>
