<svg id="eYBSeXitoDM1" xmlns="http://www.w3.org/2000/svg" xmlns:xlink="http://www.w3.org/1999/xlink" viewBox="0 0 512 512" shape-rendering="geometricPrecision" text-rendering="geometricPrecision"><g transform="matrix(1.069224 0 0 1.069224-16.681652-19.318748)"><g transform="matrix(.808593 0.307965-.307965 0.808593 128.844085-19.790525)"><path d="M353.435,125.067l-29.059,31.838c52.500638,26.01688,85.734985,79.525549,85.786,138.119C410.14,380.008,340.995,449.197,256,449.197s-154.14-69.144-154.14-154.14c.051204-58.593674,33.285973-112.1024,85.787-138.119L158.588,125.1c-60.896662,34.916357-98.477222,99.727471-98.53,169.924C60.057,403.056,147.955,491,256,491c108.044,0,195.943-87.899,195.943-195.943-.031614-70.222606-37.62027-135.064964-98.542-169.99h.034Z"/></g><g transform="matrix(1.326728 0 0 1.326728-70.582553 214.093064)"><path d="M222.97,43.094l-17.72,5.937c18.246,54.362,27.075,112.164,24.406,174.47l-.875,20.5l16.032-12.78c47.213-37.597,81.827-86.216,102.282-146.095l-17.688-6.063c-17.04,49.88-44.08,90.906-80.656,124.22.156-56.652-8.915-109.937-25.78-160.188l-.001-.001ZM53.812,51.22C51.09,160.79,110.03,244.245,208.75,273C211.323,162.9,153.606,79.392,53.812,51.22ZM388.968,201.594c-58.436-.03-115.656,25.943-163.5,76.094c90.775,49.848,192.148,32.407,268.217-47.563-34.172-19.135-69.658-28.513-104.718-28.53l.001-.001ZM136.936,277.03c-52.45.582-94.1,32.36-116.687,91.25c82.336,33.03,151.56,4.26,182.72-77.374-23.333-9.574-45.51-14.102-66.032-13.875l-.001-.001Zm81.97,19.47c-37.76,80.056-8.793,149.03,75.343,183.094c37.786-80.46,9.994-149.316-75.344-183.094h.001Z" transform="matrix(.411619 0 0 0.411619 182.081979-147.646322)"/></g></g></svg>
