<?xml version="1.0" encoding="utf-8"?>
<svg viewBox="0 0 512 512" style="" xmlns="http://www.w3.org/2000/svg">
  <g class="" transform="translate(0,0)" style="">
    <path d="M 491.844 22.533 L 408.424 37.398 L 196.572 249.25 C 199.834 254.065 186.851 279.701 181.272 279.701 C 165.548 279.701 162.461 281.036 150.582 288.497 L 112.859 250.772 L 72.093 258.68 L 130.407 316.994 C 128.794 322.069 127.917 327.464 127.917 333.057 C 127.917 340.723 129.567 348.017 132.509 354.621 L 60.369 426.761 L 35.571 451.56 L 26.964 460.168 L 54.21 487.414 L 62.816 478.804 L 87.617 454.008 L 159.775 381.848 C 166.361 384.77 173.633 386.41 181.273 386.41 C 186.866 386.41 192.261 385.533 197.336 383.92 L 255.699 442.283 L 263.602 401.517 L 225.831 363.744 C 234.115 352.196 234.626 348.779 234.626 333.054 C 234.626 327.708 260.382 314.618 265.126 317.803 L 476.98 105.95 L 491.844 22.533 Z M 425.617 75.545 L 438.832 88.76 L 235.148 292.44 L 221.934 279.227 L 425.617 75.545 Z" fill-opacity="1"/>
  </g>
</svg>
