<svg id="eotqwpkWy9n1" xmlns="http://www.w3.org/2000/svg" xmlns:xlink="http://www.w3.org/1999/xlink" viewBox="0 0 512 512" shape-rendering="geometricPrecision" text-rendering="geometricPrecision"><g><path d="M265.344,17.5l-4.188,25.313c-17.994-.1-35.62,2.066-52.562,6.28l-9.438-25.062-55.125,20.75l9.907,26.282c-15.008,8.587-28.96,18.95-41.5,30.876L90,83.53l-37.375,45.5L75.75,148c-8.54,14.428-15.47,30.036-20.5,46.594l-30.063-4.97-9.593,58.095L46,252.75c-.374,17.218,1.313,34.127,4.906,50.438L22,314.063l20.75,55.125l28.625-10.782c8.07,15.027,17.91,29.046,29.28,41.75L81.688,423.25l45.532,37.344l18.343-22.344c14.386,9.118,30.04,16.577,46.687,22.125l-4.53,27.5l58.093,9.594l4.343-26.283c18.046.874,35.764-.54,52.875-4.03l8.97,23.78l55.094-20.75-8.53-22.656c16.126-8.343,31.134-18.683,44.655-30.78l17.936,14.72L458.5,385.937l-17.188-14.093c9.733-15.35,17.606-32.125,23.25-50.03l21.407,3.53l9.56-58.094-21.06-3.47c.608-18.84-1.282-37.305-5.408-55.06l19.844-7.47-20.75-55.125-20.187,7.594c-8.89-16.114-19.817-31.033-32.5-44.376l14.155-17.25-45.5-37.375-14.72,17.936c-15.396-9.116-32.13-16.37-49.936-21.47l3.967-24.092-58.093-9.594.003.002Zm24.53738,60.42249c96.005718,14.413272,167.630792,113.830049,148.69613,208.42889-19.286271,96.355505-116.845244,166.960001-208.42889,148.69613C130.048856,418.912316,70.094968,325.355506,82.444739,226.740882C94.031938,134.215501,172.625593,78.931201,251.31938,75.48349M430.064,284.53" transform="matrix(.992249-.124262 0.124262 0.992249-30.014679 33.752235)"/><path d=""/><path d=""/></g><g transform="matrix(.933712 0 0 0.933712 17.286863 17.073662)"><g transform="matrix(.952901 0 0 0.952901 11.919768 11.982291)"><path d="M310.375,16.75L89.405,75.72l58.126,50.905L282.563,90.28l2.032-.53l25.78-73Zm17.063,7.844l-27.157,76.812l91.69,91.875l95.624-8.78L327.438,24.594ZM285.625,36.656l-8.594,33.657c-.28-15.516-38.03-17.018-107.56-4.376l116.155-29.28-.001-.001Zm51.063,14.625l123.5,123.407-58.844,7.563c16.2-21.37-32.277-91.112-64.656-130.97ZM74.75,87.72L15.594,308.405l79-31.47l37.28-139.155L74.75,87.72Zm207.438,22L149.156,145.53l-35.72,133.376l97.25,97.53l133.064-35.81L379.47,207.25l-97.283-97.53h.001Zm-201.72,5.686l32.844,30.5-30.156,118.97-39.03,15.812c50.817-30.543,65.667-130.132,36.343-165.282h-.001Zm195.876,14.78L359,213.377l-30.156,113.81-44.688,11.97c119.527-107.872-34.816-238.375-131.5-140.875l9.875-37.405l113.814-30.688-.001-.003ZM490.564,203l-92.877,8.53-35.968,134.19l71.342,71.842L490.563,203h.001Zm-17.283,13.875L444.03,333.03c6.73-68.874-.03-90.85-30.655-111.5l59.906-4.655ZM102.126,294.063L20.22,326.688L181.97,488.156l17.31-96.72-97.155-97.373h.001Zm-7.532,20.918224L180.344,396.5l-7.438,61.375c0-53.207433-41.031998-135.741887-117.515867-124.845L94.594,314.981224ZM348.344,358.75l-130.53,35.125-17.564,98.188l221.688-59.157-73.594-74.156Zm18.625,42.5l24.28,24.844-115.22,32.72c61.28-26.446,83.34-37.418,90.94-57.564Z" transform="matrix(.804242 0 0 0.804242 57.463239 51.395608)"/></g><g><polygon points="-0.030418,-96.71253 48.694094,-15.82167 47.655029,27.026219 -49.028172,18.696659 -48.694094,-15.82167 -0.030418,-96.71253" transform="matrix(.427179-1.82075 0.398218 0.093429 94.62486 211.332304)" stroke-width="0"/><polygon points="-1.296853,-80.604818 48.694094,-15.82167 45.627355,31.32677 -49.028172,18.696659 -48.694094,-15.82167 -1.296853,-80.604818" transform="matrix(1.792596-.533116 0.116598 0.39206 211.785533 89.463924)" stroke-width="0"/><polygon points="0.048736,-76.124957 48.694094,-15.82167 47.655029,27.026219 -49.028172,18.696659 -48.694094,-15.82167 0.048736,-76.124957" transform="matrix(1.342245 1.302303-.284828 0.293563 378.731228 131.504515)" stroke-width="0"/></g><g transform="matrix(-.999883-.015264 0.015264-.999883 516.935232 515.944207)"><polygon points="-2.895158,-99.378912 48.694094,-15.82167 47.655029,27.026219 -49.028172,18.696659 -48.694094,-15.82167 -2.895158,-99.378912" transform="matrix(.427179-1.82075 0.398218 0.093429 94.62486 211.332304)" stroke-width="0"/><polygon points="-1.55932,-72.138976 48.694094,-15.82167 47.655029,27.026219 -49.028172,18.696659 -48.694094,-15.82167 -1.55932,-72.138976" transform="matrix(1.792596-.533116 0.116598 0.39206 211.785533 89.463924)" stroke-width="0"/><polygon points="-0.157966,-77.906036 48.694094,-15.82167 47.655029,27.026219 -49.028172,18.696659 -48.694094,-15.82167 -0.157966,-77.906036" transform="matrix(1.342245 1.302303-.284828 0.293563 378.731228 131.504515)" stroke-width="0"/></g></g><rect width="51.2" height="51.2" rx="0" ry="0" transform="matrix(.485379 0.15323-.15323 0.485379 296.572078 70.48786)" stroke-width="0"/><rect width="51.2" height="51.2" rx="0" ry="0" transform="matrix(.485379 0.15323-.15323 0.485379 207.5702 414.673228)" stroke-width="0"/><rect width="51.2" height="51.2" rx="0" ry="0" transform="matrix(.414409 0.295528-.295528 0.414409 388.17567 363.555017)" stroke-width="0"/><rect width="51.2" height="51.2" rx="0" ry="0" transform="matrix(.356927 0.362871-.362871 0.356927 134.200485 104.750875)" stroke-width="0"/><rect width="51.2" height="51.2" rx="0" ry="0" transform="matrix(.075601 0.686591-.610916 0.067269 447.510827 192.342771)" stroke-width="0"/><rect width="51.2" height="51.2" rx="0" ry="0" transform="matrix(.075601 0.686591-.610916 0.067269 98.365547 283.946896)" stroke-width="0"/></svg>
