<svg id="eb76mGeYtNJ1" xmlns="http://www.w3.org/2000/svg" xmlns:xlink="http://www.w3.org/1999/xlink" viewBox="0 0 512 512" shape-rendering="geometricPrecision" text-rendering="geometricPrecision"><g><path d="M438.582,296.069l53.302-14.694-.024-50.728-53.278-14.743c-4.76-21.901-13.445-42.325-25.185-60.608l27.323-48.157-35.904-35.855-48.078,27.3C338.4,86.818,317.975,78.16,296.053,73.347L281.307,20.123h-50.667L215.87,73.347c-21.874,4.813-42.324,13.472-60.61,25.235L107.13,71.284L71.25,107.167l27.3,48.077c-11.74,18.336-20.401,38.76-25.236,60.66L20.116,230.648v50.727l53.198,14.694c4.751572,21.554694,13.296098,42.093386,25.235,60.658L71.251,404.884l35.88,35.83l48.128-27.274c18.568031,11.923098,39.107452,20.451054,60.66,25.186l14.72,53.25l50.693-.024l14.72-53.225c21.923-4.813,42.348-13.47,60.686-25.212l48.127,27.327l35.805-35.883-27.273-48.155c11.714-18.31,20.4-38.708,25.185-60.635ZM122.23,209.959"/></g></svg>
