<svg id="e2vBUxAYOyb1" xmlns="http://www.w3.org/2000/svg" xmlns:xlink="http://www.w3.org/1999/xlink" viewBox="0 0 560 768" shape-rendering="geometricPrecision" text-rendering="geometricPrecision"><g transform="matrix(.659402 0 0 0.659402 100.688511 191.981256)"><path d="M500,769c-23.627716,5.542479-45.25885,5.542479-64.731262-.269165-12.97702-7.191162-22.946106-16.942078-32.917328-26.727722-3.784699-3.714295-7.7388-7.368897-12.080841-10.379944-10.460602-7.253906-21.612518-12.53186-34.929566-9.184998-8.622833,2.167115-14.033172,8.621643-19.41336,14.939942-9.276978,10.894531-20.136841,19.753418-32.75766,26.46112C299.813721,765.622986,296.391785,767.283142,293,769c-12,5.542479-31,5.542479-54.771103-.239258-9.991028-5.442627-19.180313-10.822265-28.583343-15.798034-8.810959-4.662476-18.24794-7.501709-28.32544-6.238892C161.807144,749.169128,145.381729,759.082214,129,769c-38.390492,6.470825-40.960152,8.381776-81.746284-.252563-20.068078-14.024231-32.719791-32.511963-39.649547-55.178345C4.243541,702.576965,2.843934,691.258667,1,680c0-16.020874,0-32.041809.060517-48.931519.252823-1.842407.559059-2.808715.620652-3.790405c1.292088-20.593628,3.613466-41.090942,6.291301-61.533325c5.742135-43.835144,13.385141-87.395477,19.054979-131.248932c3.865009-29.893982,6.591108-59.876434,7.43065-89.973755.733643-26.30072.715023-52.620605,2.141121-78.908661c1.255234-23.138397,3.90305-46.066406,9.796047-68.520324C59.424824,147.44693,85.411385,105.47007,122.160431,69.969444C150.357574,42.73019,182.533813,21.908985,220.074387,9.81285C233.754486,5.404918,247.84668,3.088562,262,1c10.354218,0,20.708466,0,31.893799.140854c16.831116,2.440283,32.673797,5.422844,47.924072,10.979907c58.878143,21.45464,102.371216,61.130155,134.554413,114.022656c33.788299,55.530487,50.863373,116.878586,61.957916,180.226548c4.417725,25.224578,7.773133,50.606384,10.266052,76.10025c2.540772,25.982361,5.097962,51.963592,7.808838,77.928558C557.750549,473.285278,559.456909,486.134125,561,499c0,60.354248.137939,113.565612,0,174.714172-.572754,1.867675-4.195435,24.859253-4.59491,25.945557C544.131957,733.025452,531.072571,748.914246,500,769m-88.88501-50.655334c4.395539,3.574707,8.770813,7.174621,13.190827,10.71875c9.502411,7.61914,19.157989,15.013916,30.435333,19.919982c6.659332,2.897034,13.388733,3.743348,20.356415.934998c5.557342-2.239929,11.326416-3.984985,16.785492-6.431641c10.420135-4.670105,20.37091-10.126953,26.536682-20.366577c16.942566-28.136963,24.837524-58.708435,24.087768-91.473388-.33136-14.481202-1.164856-28.952881-1.897583-43.422425-.808288-15.96344-1.958069-31.911926-2.573608-47.881775-.327454-8.493164-2.096314-16.732605-3.114136-25.078369-2.012207-16.499237-1.96936-33.212311-2.99469-49.829407-2.266662-36.732147-6.240051-73.230712-12.165527-109.552276-8.621491-52.847901-20.709839-104.81102-39.298218-155.096512-14.52652-39.297333-33.273956-76.267395-60.700622-108.452377C367.003387,30.42038,281.237793,9.949118,206.396362,41.653576c-35.306076,14.956425-64.396255,38.076961-88.359871,67.702297-22.686988,28.047096-39.551422,59.21415-48.266494,94.457619-6.99831,28.300979-8.164482,57.277206-9.29617,86.190903-.977142,24.96524-2.903976,49.854431-4.699421,74.755279-1.50735,20.905274-3.451381,41.78183-5.426033,62.649872-2.052246,21.68811-3.966621,43.401733-6.67443,65.012329-3.826794,30.540955-11.028023,60.523193-15.863709,90.906311-4.769047,29.964478-8.297153,59.975891-4.541981,90.385986c3.118206,25.251709,12.166012,47.959473,28.381707,67.674622c9.430431,11.465576,21.160984,17.622742,36.389888,15.196716c8.281777-1.319275,16.083802-4.212707,23.716843-7.608825c13.851067-6.162476,27.062492-13.639588,41.02935-19.592102c25.411286-10.829834,49.799195-10.247254,73.340973,5.149108c5.842499,3.820984,12.019592,7.167664,18.213013,10.407105c12.409607,6.490723,25.220276,6.577331,38.202515,1.774292c12.755523-4.718994,23.46759-12.493225,32.889282-22.151795c4.885742-5.008544,9.527069-10.262023,14.52478-15.153564c14.949127-14.631348,32.162445-17.74408,51.453491-9.75c10.739716,4.4505,20.022644,11.211914,29.704895,18.684937Z"/><path d="M164.295166,215.492416c.381577-10.716278,2.581421-20.56694,6.510834-30.03479c2.187607-5.27098,5.084366-10.123779,8.889999-14.390976c10.82045-12.132782,25.56514-12.135681,36.354675.034363c7.762604,8.755844,11.553101,19.361771,13.750138,30.610596c3.999115,20.475357,2.473465,40.39151-6.464463,59.475464-2.136856,4.562591-4.984634,8.63504-8.52539,12.240112-10.371582,10.559906-23.546127,10.609192-33.881683-.052521-8.808762-9.086792-12.859467-20.531204-15.130372-32.606292-1.533737-8.155259-2.729278-16.44133-1.503738-25.275956Z"/><path d="M319.324341,171.345612c13.690094-13.491028,27.847381-12.41716,39.111847,2.833984c7.520141,10.181625,11.074341,21.972061,12.381286,34.327499c1.951081,18.444321.676514,36.551407-7.959655,53.496048-2.133179,4.185425-4.789734,7.989106-8.044648,11.363007-10.548248,10.933868-24.973877,10.602234-34.942993-.890564-8.810486-10.157044-12.917114-22.426086-14.850891-35.409592-2.720123-18.263015-1.081848-36.113327,6.46695-53.198913c1.967132-4.452332,4.534545-8.500428,7.838104-12.521469Z"/></g><g transform="matrix(1.693603 0 0 1.693603-160.309684-54.960728)"><path d="M175.87543,38.90457v33.81629h161.21614v-33.81629h-161.21614Zm14.19,48.373091c-.66,2.9-1.554,5.263-2.75,6.936-2.684,3.75-7.033,6.594-19.5,6.594-21.54,0-34.89943,5.862-49.25243,16.094s-23.907,25.398-23.907,42.5v267.348339c0,32.34,26.255,58.625,58.594,58.625h213.47c32.338,0,58.592-26.286,58.592-58.625v-267.348339c0-17.102-9.527-32.2-23.593-42.438-14.067-10.237-26.92543-16.156-47.53543-16.156-16.69,0-23.62-3.488-26.874-7.188-1.41-1.604-2.43-3.698-3.156-6.343h-19.125c1.073,6.658,3.37,13.137,8.25,18.686c8.11,9.223,21.523,13.53,40.906,13.53c16.978,0,26.15143,5.008,36.53543,12.564c10.38,7.556,15.905,17.1,15.905,27.344v267.349339c0,22.355-17.55,39.938-39.906,39.938h-213.469c-22.355,0-39.906-17.583-39.906-39.938v-267.348339c0-10.245,5.455-19.72,16.062-27.28c10.607-7.563,20.31543-12.626,38.40843-12.626c15.962,0,28.056-5.142,34.686-14.407c3.904-5.455,5.733-11.545,6.625-17.81h-19.06v-.001Z"/></g></svg>
