<?xml version="1.0" encoding="utf-8"?>
<svg viewBox="0 0 512 512" xmlns="http://www.w3.org/2000/svg">
  <g transform="translate(0,0)">
    <path d="M 491.844 22.533 L 414.424 43.398 C 414.424 43.398 159.079 297.877 149.293 308.783 L 132.47 288.384 L 117.074 272.987 L 109.859 265.772 L 78.093 264.68 L 130.407 316.994 C 128.794 322.069 129.567 348.017 132.509 354.621 L 60.369 426.761 L 51.452 417.683 L 26.656 442.482 L 35.571 451.56 L 26.964 460.168 L 54.21 487.414 L 62.816 478.804 L 72.185 488.706 L 96.983 463.906 L 87.617 454.008 L 159.775 381.848 C 166.361 384.77 192.261 385.533 197.336 383.92 L 249.699 436.283 L 248.602 404.517 L 241.39 397.3 L 225.991 381.904 L 206.511 363.03 C 217.416 353.245 470.98 99.95 470.98 99.95 L 491.844 22.533 Z M 415.28 63.007 L 428.495 76.222 L 181.716 322.267 L 168.502 309.054 L 415.28 63.007 Z" fill-opacity="1"/>
  </g>
</svg>
