<svg id="epv8dwRJYkq1" xmlns="http://www.w3.org/2000/svg" xmlns:xlink="http://www.w3.org/1999/xlink" viewBox="0 0 512 512" shape-rendering="geometricPrecision" text-rendering="geometricPrecision"><g transform="matrix(1.116688 0 0 1.116688-44.562904-40.705729)"><path d="M399.8,37.35c-2.3,9.45-5,18.36-8.1,26.76c53,62.49,59,152.29,39.7,227.19-10.3,39.9-27.8,75.8-50.2,101.7-13.4,15.6-28.9,27.8-45.6,34.5c1.6,8.3,3.1,16.5,4.4,24.7c115.6-67.1,174.5-271,59.8-414.85ZM167.2,45.91l-4.1,62.59c33.9,10.4,70.3,26.4,95.4,45.2l23.1-71.26c-36.5-24.85-72.9-48.39-114.4-36.53ZM383.8,82.94C358.6,135,316.2,164,265.4,177.7l-4.8,1.3-3.6-3.4c-23.6-21.8-75.9-44.1-117-54.8-9.6,33.1-19.2,77.6-17,108.8c77.7-2.1,129.8,29.1,162.7,74c22.9,31.1,36.9,68.5,45.9,106c12.6-5.6,24.7-15.2,36-28.3c20-23.2,36.7-56.9,46.4-94.5c17.4-67.7,12.4-147.4-30.2-203.86ZM143.7,247.7L87.69,494.3h25.51L151.4,452L148,437l-27.9,13.7-8-16.2l60.5-29.8l8,16.2-16,7.9c2.6,9.8,4.6,20.4,6.9,30-11.5,12.3-24.5,24.9-34.1,35.5h45.4l44.6-221.7c-22.2-14.1-49.5-23.1-83.7-24.9Zm17.8,19.4l48.9,32.8-10,15-17.5-11.7L172.6,319l20.5,55.5-16.8,6.2-15.9-43-14.8,22.8-15-9.8L168,293.2l-16.5-11.1l10-15Z"/></g></svg>
