<svg id="eQnu8GVqCko1" xmlns="http://www.w3.org/2000/svg" xmlns:xlink="http://www.w3.org/1999/xlink" viewBox="0 0 512 512" shape-rendering="geometricPrecision" text-rendering="geometricPrecision"><g><path d="M81.03,27.05L54,54.09L26.97,81.14l19.25,17.4L98.53,46.31L81.03,27.05ZM128.1,44.86c-8.9.1-16.8,6.78-19.8,9.62L54.39,108.4c-4.35,4.5-17.6,20.6-2.81,34.1c13.63,11.9,26.26,1.2,30.21-2.7.77-.7,1.16-1.3,1.16-1.3s75.15,62.9,103.95,102.5c7.3,13.2,12.6,25.7,12.6,41.4-8.7,81.8-32.6,103.5-24.3,111c73.7,73.8,162.6,91.5,162.6,91.5l73.5-73.5L485,337.8c0,0-18-88.7-91.7-162.6-7.6-8.1-29.3,15.8-111,24.4-15.8,0-28.3-5.2-41.4-12.6-30.8-22.5-75.7-73-94.2-94.05L131.9,107.6c13.2,14.9,50.2,55,86.7,86.6-7.4-1.9-17.9,4.4-17.9,4.4-13.8-10.9-67.5-63.6-81-79.1l-9.2,9.5-8.9-8.9l36.9-37.06c0,0,.3-.37,1.2-1.14c3.8-3.96,14.5-16.59,2.9-30.22-4.7-5.09-9.7-6.86-14.5-6.82ZM276.053574,208.5v1.7l13.602494,3.4c38.616604-.1,56.401032-7.623817,97.043932-23.3h.1c15.194576,18.2-1.883427-7.2,11.916573,18.2"/><path d="M250.9,208.5c2,0,3.6.5,4.8,1.7c5.5,5.5-3.3,20.2-14.4,31.3-11,11-25.6,19.8-31.1,14.3-5.6-5.4,3.1-20.3,14.3-31.2c8.6-8.7,19.4-15.9,26.4-16.1Z"/></g></svg>
