<svg id="euYceR9vk2H1" xmlns="http://www.w3.org/2000/svg" xmlns:xlink="http://www.w3.org/1999/xlink" viewBox="0 0 512 512" shape-rendering="geometricPrecision" text-rendering="geometricPrecision"><g transform="matrix(-.935917-.455044 0.455044-.935917 443.152013 638.429799)"><path d="M288.7,30.45h-1.1c-.9.1-1.8.21-2.6.45-3.5.96-6.5,3.01-9,8.19L139.7,319.5c4.7,1.7,9.3,3.7,13.9,5.9c4.5,2.2,8.9,4.6,13.1,7.2L303,52.23c2.5-5.17,2.3-8.82.9-12.09-1.3-3.27-4.2-6.2-7.8-7.95-2.4-1.15-5-1.74-7.4-1.74Zm25.729563,37.301205l-48.2,98.86l45,21.9l7.7-15.6-21.8-28.4l18.8-38.8l35.7-.4l7.7-15.7-44.9-21.86ZM93.19,329.4c-6.31.1-12.42.7-18.2,1.9-21.01,4.3-37.52,15.6-45.78,32.6s-6.97,37,2.6,56.2c9.61,19.4,27.7,37.5,51.81,49.2C107.8,481,133.2,484,154.4,479.6c21-4.3,37.5-15.6,45.7-32.6c8.3-17,7-37-2.6-56.2-9.6-19.4-27.7-37.5-51.8-49.2-16.6-8-33.8-12-49.8-12.2h-2.71Zm-3.31,28.2c6.42,0,13.02,1.5,19.22,4.5c7.9,3.9,14.3,9.8,18.5,16.7c1.8-.2,3.7-.3,5.5-.3c6.4.1,12.9,1.6,19.1,4.6c19.7,9.6,30.1,32.1,21,50.8s-33.2,24.4-52.9,14.9c-7.9-3.9-14.3-9.8-18.5-16.7-8.14.9-16.77-.4-24.69-4.3-19.7-9.6-30.01-32.1-20.92-50.8c6.25-12.9,19.57-19.6,33.69-19.4Z" transform="matrix(-1 0 0 1 512.044426 0)"/></g></svg>
