<svg id="eUWH9BD0bs31" xmlns="http://www.w3.org/2000/svg" xmlns:xlink="http://www.w3.org/1999/xlink" viewBox="0 0 512 512" shape-rendering="geometricPrecision" text-rendering="geometricPrecision"><g transform="translate(-58.187748 19.200016)"><path d="M167.097,19.202c-23.86-.12-47.931,5.62-72.762,21.235c65.817-15.283,120.294-3.244,177.727,4.298-35.673-12.666-70.093-25.358-104.965-25.533ZM421.356,464.971c-.013,2.873,45.768-50.04-1.83-75.888-40.976-16.608-81.709-30.476-119.487-37.927-97.554-48.787-20.561-305.612-20.561-305.612c0-2.866-9.53,28.375-51.26,29.505-20.306.55-38.106-.284-53.619-1.974l-.636,11.774-27.21,19.376-19.222-13.691v-26.59C98.363,55.296,86.103,44.832,86.103,44.832c-1.376024-.000265-2.695767.546241-3.668763,1.519237s-1.519502,2.292739-1.519237,3.668763s23.388,191.765,6.657,289.317c-3.346,14.517-6.428,28.433-9.676,42.796-.185.818-2.981,6.233-5.063,13.367c110.536,4.38,300.487,68.665,300.93,71.388s-193.965-48.957-302.926-53.13c.296,2.38.863,4.722,1.807,6.952.029-.004.055-.004.082-.006c11.513,13.803,30.986,17.375,44.736,16.807C184.128,434.091,378.69,492.8,378.69,492.8c63.719-18.675,56.140273-64.345,43.810273-72.096M173.267,97.707l-1.322,24.458-16.513-11.76l17.835-12.698Zm-45.736,5.192l10.543,7.506-10.543,7.509v-15.015Zm19.223,13.688L168,131.716L146.754,145.88l-19.223-12.816v-2.788l19.223-13.689Zm24.123,25.312l-1.05,19.364-13.997-9.334l15.047-10.03Zm-43.346,3.267l10.148,6.763-10.148,6.765v-13.528Zm19.223,12.816l22.443,14.962-.249,4.58-22.194,21.853-19.223-18.927v-9.654l19.223-12.814Zm21.387,34.467l-1.438,26.57-12.774-12.577l14.212-13.993Zm-40.61,2.132l12.047,11.861-12.047,11.86v-23.721Zm19.223,18.926l19.223,18.927-.332,6.143-18.89,15.17-19.224-15.435v-5.878l19.223-18.927Zm-19.223,37.719l11.182,8.978-11.182,8.98v-17.958Zm37.382.853l-.84,15.576-9.28-7.451l10.12-8.125Zm-18.159,14.583l16.648,13.367-.756,13.973-15.892,14.574-19.223-17.628v-8.848l19.223-15.438Zm-19.223,37.947l11.774,10.798-11.774,10.8v-21.598Zm34.338,3.768l-.726,13.397-6.942-6.367l7.668-7.03Zm-15.115,13.86l13.685,12.552-.87,16.073c0,2.866358-2.323642,5.19-5.19,5.19h-21.659c-2.866358,0-5.19-2.323642-5.19-5.19v-10.995l19.224-17.63Z"/></g><g transform="matrix(.886206 0 0 0.886206 108.38968-6.227501)"><path d="M167.097,19.202c-23.86-.12-47.931,5.62-72.762,21.235c65.817-15.283,120.294-3.244,177.727,4.298-35.673-12.666-70.093-25.358-104.965-25.533ZM421.356,464.971c-.013,2.873,45.768-50.04-1.83-75.888-40.976-16.608-81.709-30.476-119.487-37.927-97.554-48.787-20.561-305.612-20.561-305.612c0-2.866-9.53,28.375-51.26,29.505-20.306.55-38.106-.284-53.619-1.974l-.636,11.774-27.21,19.376-19.222-13.691v-26.59C98.363,55.296,86.103,44.832,86.103,44.832c-1.376024-.000265-2.695767.546241-3.668763,1.519237s-1.519502,2.292739-1.519237,3.668763s23.388,191.765,6.657,289.317c-3.346,14.517-6.428,28.433-9.676,42.796-.185.818-2.981,6.233-5.063,13.367c110.536,4.38,300.487,68.665,300.93,71.388s-193.965-48.957-302.926-53.13c.296,2.38.863,4.722,1.807,6.952.029-.004.055-.004.082-.006c11.513,13.803,30.986,17.375,44.736,16.807C184.128,434.091,378.69,492.8,378.69,492.8c63.719-18.675,56.140273-64.345,43.810273-72.096M173.267,97.707l-1.322,24.458-16.513-11.76l17.835-12.698Zm-45.736,5.192l10.543,7.506-10.543,7.509v-15.015Zm19.223,13.688L168,131.716L146.754,145.88l-19.223-12.816v-2.788l19.223-13.689Zm24.123,25.312l-1.05,19.364-13.997-9.334l15.047-10.03Zm-43.346,3.267l10.148,6.763-10.148,6.765v-13.528Zm19.223,12.816l22.443,14.962-.249,4.58-22.194,21.853-19.223-18.927v-9.654l19.223-12.814Zm21.387,34.467l-1.438,26.57-12.774-12.577l14.212-13.993Zm-40.61,2.132l12.047,11.861-12.047,11.86v-23.721Zm19.223,18.926l19.223,18.927-.332,6.143-18.89,15.17-19.224-15.435v-5.878l19.223-18.927Zm-19.223,37.719l11.182,8.978-11.182,8.98v-17.958Zm37.382.853l-.84,15.576-9.28-7.451l10.12-8.125Zm-18.159,14.583l16.648,13.367-.756,13.973-15.892,14.574-19.223-17.628v-8.848l19.223-15.438Zm-19.223,37.947l11.774,10.798-11.774,10.8v-21.598Zm34.338,3.768l-.726,13.397-6.942-6.367l7.668-7.03Zm-15.115,13.86l13.685,12.552-.87,16.073c0,2.866358-2.323642,5.19-5.19,5.19h-21.659c-2.866358,0-5.19-2.323642-5.19-5.19v-10.995l19.224-17.63Z"/></g></svg>
