<svg id="eNABUi6Isea1" xmlns="http://www.w3.org/2000/svg" xmlns:xlink="http://www.w3.org/1999/xlink" viewBox="0 0 512 512" shape-rendering="geometricPrecision" text-rendering="geometricPrecision"><g transform="translate(-20.125999 14.154999)"><path d="M527.201985,-14.154999l-85.594,28.563c5.54,36.314,1.39,77.714-19.095,122.937C397.005985,193.657001,305.171,289.155,217.594,356.845l-11.25-14.908c85.803-66.357,175.338985-159.739999,199.138985-212.279999c17.45-38.53,22.02-72.994,18.81-103.687L170.94,295.063l-22-29.125-14.907,11.25l23.095,30.562-.25.188l34.22,44.968c.022-.018.038-.044.06-.062l11.814,15.625.968,1.374l6.843,8.97-21,35.155l16.032,9.592L230.032,383l3.25-5.406-.126-.156c149.192-98.997,325.168985-267.719999,294.044985-391.592999h.001ZM142.03,319.28c-4.855,3.834-9.67,7.734-14.405,11.72c3.36,9.22,7.55,20.726,11.875,32.72c3.4,9.423,6.637,18.544,9.594,26.905c8.9-9.123,18.042-17.753,27.5-25.875l-34.563-45.47h-.001ZM112.5,344.156c-7.328,6.596-14.497,13.383-21.53,20.344l25,63.594c6.146-7.627,12.39-14.988,18.75-22.094-.052-.145-.075-.26-.126-.406-3.47-9.91-8.09-22.787-12.688-35.53-3.423-9.494-6.464-17.82-9.406-25.908Zm-35.844,34.97c-8.362,8.813-16.52,17.888-24.47,27.218l32.19,64.28c6.026-8.72,12.082-17.21,18.25-25.405l-25.97-66.095v.002Zm-37.5,42.968c-6.48,8.057-12.824,16.29-19.03,24.687c2.195,26.79,25.804,46.102,46.093,51.064c2.042-3.18,4.103-6.317,6.155-9.438l-33.22-66.312.002-.001Z"/></g></svg>
