<?xml version="1.0" encoding="utf-8"?>
<svg viewBox="0 0 512 512" style="" xmlns="http://www.w3.org/2000/svg">
  <g class="" transform="translate(0,0)" style="">
    <path d="M 71 32 C 71 83.5 100.1 140.6 137 185.7 C 146.8 197.6 157.1 208.7 167.6 218.5 C 168.85 220.3 198.756 244.608 203.1 246.3 C 218 255.8 236.8 262.3 251 264.3 L 251 356.501 L 203.034 246.428 L 167.737 218.311 L 251 367.543 L 251 440 C 250.971 440.156 253.481 445.391 255.993 445.375 C 258.499 445.359 261.006 440.092 261 440 L 261 367.249 L 344.312 218.519 L 308.91 246.501 L 260.825 356.217 L 261 264.3 C 275.2 262.3 294.231 255.922 309.131 246.422 C 327.747 233.687 338.503 224.395 344.4 218.5 C 354.557 208.345 365.2 197.6 375 185.7 C 411.9 140.6 441 83.5 441 32 L 423 32 C 423 76.5 396.1 131.4 361 174.3 C 352.4 184.8 343.3 194.6 334.1 203.4 C 333.441 204.149 317.588 220.579 296.6 232.8 C 281.3 242 266.9 247 256 247 C 245.1 247 230.7 242 215.4 232.8 C 199.372 224.375 177.837 203.711 177.9 203.4 C 168.7 194.6 159.6 184.8 151 174.3 C 115.9 131.4 89 76.5 89 32 L 71 32 Z" fill-opacity="1"/>
  </g>
</svg>
