<svg id="efmqHLFYBTo1" xmlns="http://www.w3.org/2000/svg" xmlns:xlink="http://www.w3.org/1999/xlink" viewBox="0 0 512 512" shape-rendering="geometricPrecision" text-rendering="geometricPrecision"><g transform="matrix(1.075335 0 0 1.075335-16.436119-21.957954)"><path d="M86.33,22.67C74.66,60.11,54.85,77.51,17.9,81.44c34.9,5.95,54.06,16.65,64.93,57.46c5.1-17.7-2.54-44.83,40.27-51.12C91.33,72.61,87.63,58.2,86.33,22.67ZM399.8,37.35c-2.3,9.45-5,18.36-8.1,26.76c53,62.49,59,152.29,39.7,227.19-10.3,39.9-27.8,75.8-50.2,101.7-13.4,15.6-28.9,27.8-45.6,34.5c1.6,8.3,3.1,16.5,4.4,24.7c115.6-67.1,174.5-271,59.8-414.85ZM167.2,45.91l-4.1,62.59c33.9,10.4,70.3,26.4,95.4,45.2l23.1-71.26c-36.5-24.85-72.9-48.39-114.4-36.53ZM383.8,82.94C358.6,135,316.2,164,265.4,177.7l-4.8,1.3-3.6-3.4c-23.6-21.8-75.9-44.1-117-54.8-9.6,33.1-19.2,77.6-17,108.8c77.7-2.1,129.8,29.1,162.7,74c22.9,31.1,36.9,68.5,45.9,106c12.6-5.6,24.7-15.2,36-28.3c20-23.2,36.7-56.9,46.4-94.5c17.4-67.7,12.4-147.4-30.2-203.86ZM137.4,494.3h45.4l44.6-221.7c-22.2-14.1-49.5-23.1-83.7-24.9L87.69,494.3h25.51M41.3,267.6c4.26,36.2,12.96,45.7-21.03,56.1c39.29,1.5,41.04,6.6,54.5,41.4-3.46-35.3-7.53-41.5,29.03-62.7-18.43-.2-36.47,11.8-62.5-34.8ZM419.6,390.7c14.1,36.7,9.3,62.6-17.4,88.6c31.1-17,52.8-20.4,86.6,4.9-7-17-29.8-33.6,0-65-34.4,7.8-46.3-1.3-69.2-28.5Z"/></g></svg>
