<svg id="eJbxUOcQMI81" xmlns="http://www.w3.org/2000/svg" xmlns:xlink="http://www.w3.org/1999/xlink" viewBox="0 0 512 512" shape-rendering="geometricPrecision" text-rendering="geometricPrecision">
  <defs>
    <!-- Define the mask -->
    <mask id="cutoutMask">
      <!-- Invert the colors for the mask: white becomes black (transparent in mask), black becomes white (opaque in mask) -->
      <rect width="100%" height="100%" fill="white"/>
      <path d="M237.4,20.73c-6.1,42.1-26.8,64.2-63.9,64c31.6,4.5,63.8,8,63.9,64.07-.6-46.1,24.5-63.07,64.1-64.07-38-1.5-64.9-16.3-64.1-64ZM365.2,32.31c-9.1,14.25-20.8,21.29-38.9,10.28c14.9,11.79,18.6,24.76,10.2,38.97c8.9-11.18,17.5-22.73,39-10.27-17.8-10.06-18.8-23.57-10.3-38.98ZM59.68,41.69c-2.7,18.8-12,28.6-28.5,28.5c14.1,2,28.4,3.6,28.5,28.52-.3-20.5,10.9-28.12,28.5-28.52-16.9-.7-28.9-7.3-28.5-28.5ZM120.3,116.4c-15.8,53.7-47.76,48-79.35,43.4C76.6,170,90.3,197.1,84.28,239.2c12.66-46,42.62-52.6,79.42-43.4-37.6-12.1-56.9-35.4-43.4-79.4Zm187,13.763785c-8.8,61.6-27.887813,79.536215-82.187813,79.236215c46.2,6.5,82.187813,4.099999,82.187813,86.099999-.8-67.3,21.723391-84.599999,79.623391-86.099999-55.5-2.2-80.723391-9.436215-79.623391-79.236215ZM444.1,159.7c-13.1,21.6-29.5,28.8-49.7,20.1c16.3,9.7,33,19.1,20.1,49.6c10.3-25.2,27.9-28.7,49.7-20-20.3-9.7-31.6-23.9-20.1-49.7ZM50.7,243.2c9.16,16.7,7.63,30.1-5.61,40c12.46-6.9,24.85-14.3,39.91,5.6-12.57-16.2-8.2-29,5.61-40-13.92,9.7-27.47,11.6-39.91-5.6Zm137.2.3c11.4,26.8-.5,41.3-21.7,50.9c22.7-8.5,40.8-4.5,50.9,21.7-12.7-31.8,4.8-41.2,21.7-50.9-21,8.5-37.8.9-50.9-21.7Zm226.6,29.238691c-26.6,64.7-53.399998,75.271985-112.499998,59.971985c48.6,19.8,85.599998,26.01778,63.199998,115.41778c17.5-73.7,46.484044-85.487452,109.984044-71.287452-59.9-17.5-81.084044-28.302313-60.684044-104.102313ZM100.642029,304.422004c15.66,57.8,7.217971,88.2285-40.962029,108.6285c43.46-11.8,75.22-29.601218,106.52,42.998782-26.4-59.3-3.6-87.491594,47.1-110.891594-50,19.2-87.097971,21.364312-112.657971-40.735688ZM269.3,356.5c-21.8,20.6-43,23.6-63.2,7.3c15.5,16.3,31.6,32.4,7.2,63.3c19.8-25.6,41.2-24.1,63.3-7.3-20.2-17.4-28.6-37.5-7.3-63.3ZM443.2,404c-2.7,18.8-12,28.6-28.5,28.5c14.1,2,28.4,3.6,28.5,28.5-.3-20.5,10.9-28.1,28.5-28.5-16.9-.7-28.9-7.3-28.5-28.5ZM273.5,440c-2.7,18.8-12,28.6-28.5,28.5c14.1,2,28.4,3.6,28.5,28.5-.3-20.5,10.9-28.1,28.5-28.5-16.9-.7-28.9-7.3-28.5-28.5Z" fill="black" transform="scale(0.9) translate(30, 30) matrix(.834216 0 0 0.834216 43.400591 42.915675)"/>
    </mask>
  </defs>
  <!-- frame -->
  <g transform="matrix(1.154713 0 0 1.154713-39.606529-39.606897)" mask="url(#cutoutMask)">
    <path d="M142.2,38.3c-31.3,2.5-52.744785,6.345428-84.044785,12.245428L33.784997,56.986596L44.355215,78.345428C73.398697,178.041381,41.8,333.143543,34.6,442.643543c10.422328,14.547615,26.440669,33.734312,23.555213,34.132662C68.155213,475.476205,149.9,474.1,159.6,473.2l19-23.528659L197.2,469.3l30.2-13.717278L242,469.3c82.9-.2,157.7,9.1,235.7,7.9-28.2-73-31.2-143.6-31.9-209.2l-.600001-24.989336L445.2,215c-.4-21.3-1.3-42-3.6-61.9l-7.200003-24.693401 L434.4,112.1c-3.8-15.5-9-30.4-16.1-44.7L388.8,43.5C335,38,281.2,34.6,227.4,34.7c-10.1,0-20.2.2-30.2.5" transform="translate(0 0.924226)"/>
  </g>
</svg>
