<svg id="egRQYKbLFlc1" xmlns="http://www.w3.org/2000/svg" xmlns:xlink="http://www.w3.org/1999/xlink" viewBox="0 0 512 512" shape-rendering="geometricPrecision" text-rendering="geometricPrecision"><g transform="translate(0-19.888106)"><path d="M256,25c-7.6,0-14.4,1.66-18.6,3.74-3.3,1.63-4.1,2.97-4.3,3.26.2.29,1,1.63,4.3,3.26c4.2,2.08,11,3.74,18.6,3.74s14.4-1.66,18.6-3.74c3.3-1.63,4.1-2.97,4.3-3.26-.2-.29-1-1.63-4.3-3.26-4.2-2.08-11-3.74-18.6-3.74Zm22.9,7c.1.08.1.1.1,0s0-.08-.1,0Zm-45.8,0c-.1-.08-.1-.1-.1,0s0,.08.1,0Zm-17-6.22c-28.5,3.5-61.2,10.21-90.8,19.64-22.5,7.16-43.15,15.82-58.82,26.36s-27.48,23.72-27.48,40.22c0,60.8,37.88,114.8,83.1,153.6c27.3,23.4,57.1,41.6,84.4,52.4-.2-6.9-.3-13.6-.3-20.3-23.2-10.2-49.1-25.9-72.3-45.8C91.12,215.2,57,165.2,57,112c0-7.5,6.19-16.32,19.52-25.28s32.68-17.3,54.18-24.14c28.6-9.09,61-15.61,88.5-18.98-2.5-3.18-4.2-7.04-4.2-11.6c0-2.24.4-4.31,1.1-6.22Zm79.8,0c.7,1.91,1.1,3.98,1.1,6.22c0,4.56-1.7,8.42-4.2,11.6c27.5,3.37,59.9,9.89,88.5,18.98c21.5,6.84,40.8,15.18,54.2,24.14C448.8,95.68,455,104.5,455,112c0,52.1-34.1,102.3-76.9,139.2-19.9,17.2-41.8,31.4-62.3,41.6-.8,5.7-1.5,13.1-2.2,21.6c25-11.2,51.7-28.3,76.3-49.6C435.1,225.7,473,171.9,473,112c0-16.5-11.8-29.68-27.5-40.22-15.6-10.54-36.3-19.2-58.8-26.36-29.6-9.43-62.3-16.14-90.8-19.64Z"/></g><g transform="translate(0-19.888106)"><path d="M132.875,78.406L333.72,198.344l96.374,2.375-46.78-68.345-250.44-53.97.001.002Z" transform="matrix(.296523 0.714102-.714102 0.296523 276.602337 162.221404)"/></g></svg>
