<svg id="euxVjLZesTz1" xmlns="http://www.w3.org/2000/svg" xmlns:xlink="http://www.w3.org/1999/xlink" viewBox="0 0 512 512" shape-rendering="geometricPrecision" text-rendering="geometricPrecision"><g transform="translate(-70.89087 13.058843)"><path d="M198.5,62.04c-16.7,0-36.532119,12.431971-55.832119,12.581971c16.6,9.6,33.832119,11.303817,55.832119,21.453817c36,16.85,79.9,29.124212,94.9,32.824212c4,.9,18.3,2.5,36.4,3.4c18,1,40.5,1.5,63.6,1.4c38.2-.2,78.8-2.7,103-7.4-15.9-18.8-30.9-31.95-52.1-39.18-25.1-8.61-38.7-7.834156-103.8-7.834156h-7.6-2.5C284.8,58.985844,240.2,62.04,198.5,62.04ZM187.441061,109.9C223.341061,150.4,259,189.3,280.9,231.6c32.9,63.6,46.6,130.7,31.2,202.6c6,9.1,14.6,11.099055,20.8,12.599055c6.6,1.5,22.301018.903352,32.701018-5.596648C397.101018,398.002407,382.8,337.4,386.4,276.5c1.9-30.7,5.9-61.1,19.2-88c6.7-13.7,15.9-26.4,28.2-37.6-9.2.3-18.5.5-27.9.7-21.3,27-35.3,68.1-34.7,105.9-20.8-33.3,0-77.1,15.6-105.8-19.4,0-38-.4-53.9-1.2c5.6,23.9,7.2,56.3,7.6,72.8-15.7-6.8-15.3-46.7-25.5-73.8-11.4-.9-20.1-1.8-25.8-3.2-7.9-1.9-19-5.7-31.9-10.7c30.6,40.6,73.7,106.8,57.8,126-14.9-44.2-43.851303-91.2-84.751303-135.3-8.4-3.7-24.448697-12.4-33.048697-16.4h-9.858939ZM159.4,301.1"/></g></svg>
