<svg id="eGp5CqLkHPJ1" xmlns="http://www.w3.org/2000/svg" xmlns:xlink="http://www.w3.org/1999/xlink" viewBox="0 0 512 512" shape-rendering="geometricPrecision" text-rendering="geometricPrecision"><g><g transform="matrix(.979346 0.202194-.202194 0.979346 66.429772-17.599743)"><g transform="matrix(1.214511 0 0 1.176042 65.002336-91.296233)"><path d="M114.344914,162.946619c-38.51,4.3-75.238735,31.245312-102.508735,46.145312c16.53,3.7,34.99,8.1,53.13,11.7c28.43,5.6,55.95,7.5,66.05,3.1c32.1-14.2,66.574991-44.419744,89.674991-57.919744-32.8-6-67.546256-2.525568-106.346256-3.025568Zm92.655754,33.592987c-8,3-31.484489,29.352325-39.584489,32.352325-4,14.5-8.6,54-11.8,54.8-3.3.8-11.5-36.8-9-46.9-2.8,1.1-5.6,2.3-8.4,3.5-9.8,4.4-21.7,5.3-34.9,4.5c7,12.5,24.3,38.4,24.9,61c0,0-34.02-47.3-56.5-65.4-3.38-.6-6.8-1.2-10.24-1.9-9.46-1.9-18.89-4-28.13-6.1c38.32,21.2,64.97,50.3,82.67,80.2c24,40.7,32.1,82.6,32.8,111c9.6,2.4,17.6,2.8,23.8,1.4c6.3-1.4,11.1-4.3,15.3-9.3-5.8-29.7-15.5-69.1-15.9-109.7-.2-29.2,19.884489-82.652325,34.984489-109.452325Z"/></g></g></g></svg>
