<?xml version="1.0" encoding="utf-8"?>
<svg viewBox="0 0 512 512" style="" xmlns="http://www.w3.org/2000/svg">
  <g transform="translate(0,0)" style="">
    <path d="M 266.7 175.748 L 266.7 184.696 L 300.662 184.696 C 308.487 184.732 313.338 193.225 309.394 199.983 C 307.564 203.12 304.199 205.042 300.568 205.025 L 266.7 205.025 L 266.7 213.973 L 269.372 213.973 C 277.197 214.07 281.982 222.601 277.986 229.329 C 276.131 232.451 272.751 234.347 269.12 234.302 L 266.7 234.302 L 266.7 243.25 L 268.366 243.25 C 276.191 243.347 280.976 251.878 276.98 258.606 C 275.125 261.728 271.745 263.624 268.114 263.579 L 266.689 263.579 L 266.689 268.368 C 266.569 273.892 262.062 278.311 256.536 278.322 L 256.389 278.322 C 250.775 278.242 246.29 273.626 246.371 268.012 L 246.371 263.579 L 244.705 263.579 C 236.88 263.539 232.034 255.043 235.981 248.287 C 237.813 245.151 241.179 243.231 244.81 243.25 L 246.371 243.25 L 246.371 234.302 L 244.705 234.302 C 236.88 234.262 232.034 225.766 235.981 219.01 C 237.813 215.874 241.179 213.954 244.81 213.973 L 246.371 213.973 L 246.371 205.025 L 212.421 205.025 C 204.597 204.94 199.799 196.418 203.784 189.684 C 204.242 188.912 204.799 188.204 205.442 187.578 C 207.366 185.684 209.973 184.649 212.672 184.707 L 246.382 184.707 L 246.382 175.758 L 212.432 175.758 C 204.608 175.718 199.761 167.223 203.708 160.467 C 205.539 157.332 208.905 155.411 212.536 155.43 L 246.392 155.43 L 246.392 146.48 L 234.384 146.48 C 226.56 146.44 221.713 137.944 225.66 131.189 C 227.492 128.053 230.858 126.133 234.489 126.152 L 246.382 126.152 L 246.382 116.428 C 246.329 110.875 250.743 106.307 256.295 106.17 C 256.459 106.157 256.623 106.157 256.787 106.17 C 262.358 106.302 266.782 110.898 266.7 116.47 L 266.7 126.142 L 278.698 126.142 C 286.522 126.22 291.328 134.738 287.348 141.475 C 286.888 142.254 286.326 142.969 285.676 143.599 C 283.747 145.485 281.143 146.519 278.446 146.47 L 266.7 146.47 L 266.7 155.409 L 300.66 155.409 C 308.508 155.525 313.288 164.093 309.264 170.832 C 308.153 172.691 306.479 174.149 304.485 174.993 C 303.257 175.515 301.932 175.769 300.598 175.737 L 266.7 175.737 L 266.7 175.748 Z M 219.341 113.175 C 217.609 109.689 214.963 108.811 211.07 108.8 L 210.944 108.8 C 209.359 108.809 207.798 109.189 206.386 109.91 C 206.386 109.91 166.478 172.886 161.38 180.722 C 156.688 187.933 168.247 198.663 175.128 190.288 L 215.461 128.018 C 219.651 121.468 221.612 117.747 219.341 113.175 Z M 338.94 134.745 C 341.531 129.759 339.594 123.616 334.612 121.018 L 334.361 120.892 L 305.126 106.222 C 298.201 102.58 289.93 107.801 290.239 115.619 C 290.388 119.382 292.604 122.753 295.999 124.382 L 325.234 138.999 C 330.198 141.591 336.323 139.685 338.94 134.734 L 338.94 134.745 Z M 336.687 155.315 C 331.093 155.402 326.618 159.988 326.67 165.583 L 326.67 224.096 C 326.594 229.71 331.084 234.321 336.698 234.396 L 336.908 234.396 C 338.083 234.433 339.254 234.241 340.355 233.83 C 344.259 232.349 346.883 228.657 346.998 224.483 C 347.007 224.33 347.007 224.176 346.998 224.023 L 346.998 165.625 C 347.079 159.999 342.575 155.378 336.949 155.315 L 336.687 155.315 Z M 300.19 270.085 C 298.264 270.151 296.397 270.761 294.804 271.845 L 256.526 297.371 L 218.279 271.877 C 216.592 270.709 214.589 270.084 212.537 270.085 C 210.835 270.062 209.156 270.481 207.665 271.301 C 204.427 273.104 202.421 276.522 202.425 280.228 C 202.402 283.673 204.136 286.892 207.025 288.768 L 250.899 318.024 C 254.743 320.692 259.915 320.371 263.4 317.249 L 306.09 288.799 C 312.678 284.579 312.227 274.809 305.278 271.213 C 303.709 270.401 301.955 270.012 300.19 270.085 Z M 219.914 321.514 C 218.03 319.568 215.444 318.459 212.736 318.434 L 212.474 318.434 C 206.88 318.521 202.405 323.107 202.457 328.702 L 202.457 387.214 C 202.381 392.828 206.871 397.439 212.485 397.514 L 212.631 397.514 C 218.141 397.504 222.643 393.11 222.785 387.602 C 222.794 387.449 222.794 387.295 222.785 387.142 L 222.785 328.755 C 222.837 326.056 221.808 323.449 219.925 321.514 L 219.914 321.514 Z M 307.734 321.514 C 305.851 319.568 303.265 318.458 300.557 318.434 L 300.295 318.434 C 294.705 318.526 290.236 323.111 290.288 328.702 L 290.288 387.214 C 290.212 392.828 294.702 397.439 300.316 397.514 L 300.546 397.514 C 301.718 397.554 302.887 397.362 303.984 396.949 C 307.884 395.458 310.501 391.765 310.616 387.592 C 310.624 387.445 310.624 387.299 310.616 387.152 L 310.616 328.755 C 310.667 326.054 309.633 323.446 307.746 321.514 L 307.734 321.514 Z M 219.914 414.994 C 218.031 413.047 215.445 411.936 212.736 411.912 L 212.474 411.912 C 206.879 411.999 202.404 416.587 202.457 422.182 L 202.457 480.694 C 202.381 486.308 206.871 490.919 212.485 490.994 L 212.631 490.994 C 218.142 490.984 222.643 486.59 222.785 481.081 C 222.794 480.928 222.794 480.774 222.785 480.621 L 222.785 422.223 C 222.836 419.528 221.806 416.924 219.925 414.993 L 219.914 414.994 Z M 307.745 414.993 C 305.861 413.046 303.276 411.937 300.567 411.913 L 300.306 411.913 C 294.716 412.005 290.247 416.59 290.299 422.181 L 290.299 480.694 C 290.223 486.308 294.713 490.919 300.327 490.994 L 300.537 490.994 C 301.712 491.032 302.883 490.84 303.984 490.428 C 307.89 488.943 310.513 485.248 310.627 481.071 C 310.635 480.924 310.635 480.778 310.627 480.631 L 310.627 422.223 C 310.672 419.525 309.634 416.921 307.745 414.993 Z M 285.74 59.467 C 285.74 76.83 272.61 97.934 257.448 97.934 C 242.286 97.934 227.291 76.914 227.291 59.467 C 227.29 34.193 242.265 21 257.448 21 C 272.632 21 285.782 34.109 285.782 59.467 L 285.74 59.467 Z M 251.654 55.957 C 251.654 48.956 244.075 44.58 238.011 48.08 C 231.948 51.581 231.948 60.333 238.012 63.834 C 239.394 64.632 240.962 65.052 242.558 65.052 C 247.597 65.075 251.695 60.996 251.695 55.957 L 251.654 55.957 Z M 279.537 55.957 C 279.537 48.956 271.958 44.58 265.894 48.08 C 259.831 51.581 259.831 60.333 265.894 63.834 C 267.277 64.632 268.845 65.052 270.442 65.052 C 275.481 65.075 279.579 60.996 279.579 55.957 L 279.537 55.957 Z" fill-opacity="1"/>
  </g>
  <g style="" transform="matrix(0.27634, 0, 0, 0.27634, 317.903107, 358.935181)">
    <path d="M 197.058 -833.73 C 231.142 -801.009 333.394 -735.568 401.562 -735.568 L 401.562 -604.686 C 401.562 -473.804 299.31 -277.481 197.058 -179.319 C 94.807 -277.481 -7.445 -473.804 -7.445 -604.686 L -7.445 -735.568 C 60.723 -735.568 162.974 -801.009 197.058 -833.73 Z" fill-opacity="1" style=""/>
  </g>
  <g style="" transform="matrix(1, 0, 0, 1, 24.661861, -55.545799)">
    <path d="M 86.695 142.46 C 84.001 142.54 80.94 143.906 78.448 146.399 C 74.249 150.597 73.242 156.4 76.202 159.362 C 78.41 161.569 82.204 161.58 85.728 159.698 C 90.196 168.003 97.378 175.641 105.47 180.805 C 100.284 187.481 97.188 195.861 97.188 204.952 L 102.353 204.952 C 102.353 196.966 105.068 189.622 109.633 183.802 L 110.229 194.692 C 147.543 229.186 205.558 288.669 202.725 269.983 C 184.612 243.647 157.601 212.385 126.733 178.18 L 115.963 177.594 C 121.701 173.26 128.852 170.694 136.613 170.693 L 136.613 165.528 C 127.713 165.529 119.494 168.492 112.889 173.482 C 107.722 165.361 100.068 158.149 91.739 153.671 C 93.617 150.148 93.617 146.368 91.411 144.161 C 90.208 142.959 88.539 142.407 86.695 142.46 Z" fill-opacity="1" style="transform-box: fill-box; transform-origin: 30.4618% 56.0193%;" transform="matrix(-1, 0, 0, -1, -0.000021, -0.000048)"/>
  </g>
</svg>
