<svg id="eXiWqg5Z7j41" xmlns="http://www.w3.org/2000/svg" xmlns:xlink="http://www.w3.org/1999/xlink" viewBox="0 0 512 512" shape-rendering="geometricPrecision" text-rendering="geometricPrecision"><g><path d="M307.104,200.479c2.59,3.356,0,3.652,14.34.042l-.022.128.172-.17" transform="translate(.932775 0)"/><path d="M400.924,264.343l6.51.672l1.367,6.4c2.74,12.828,8.626,19.095,15.116,22.238s14.225,2.944,20.47.205c9.316-4.086,14.518-11.35,16.7-22.712c2.122-11.05.546-25.834-5.137-42.106-33.538-38.248-44.475-87.277-63.903-128.772-6.055-9.947-12.448-18.518-20.385-24.856C376.808,55.126,386.456,34.852,400,16c-21.335,9.73-58.244,17.34-73.086,48.232-22.36,1.948-73.215993,10.673-122.682993,40.25C146.133007,139.222,97.677,202.899,81.918,319.184v3.537l-3.254,2.25c-30.87,25.002-49.657,37.937-53.416,60.153-3.536,20.9-.72,51.46-.363,101.877h303.475c3.455-16.892,10.44-29.245,12.472-41.568c2.337-14.176.19-29.938-20.812-58.547-43.078-58.683-45.734993-130.101808-11.797993-171.923808c0,0-1.118007,0,6.126993-6.812813M218.605007,38.97c-34.518.09-67.031076,53.992-117.106076,69.512c31.146,9.92,69.435076-27.002,85.075076-6.892c4.463-3.017,8.94-5.88,13.418-8.56c40.51-24.22,80.387-35.286,108.23-40.04-35.854-9.477-63.047-14.094-89.617-14.023v.003Zm-56.908,61.742c-1.13-.01-2.265-.01-3.402.004-30.353.37-57.675083,52.647-91.222083,74.185c27.186,3.672,53.708076-42.178,71.618076-30.504c15.9-17.92,28.681007-29.634,46.214007-41.668-7.548-1.244-15.292-1.938-23.207-2.017h-.001ZM368,128c7.2975.000552,13.213,5.916948,13.213,13.215.00053,3.505009-1.391283,6.866658-3.86923,9.345355s-5.839026,3.87138-9.34377,3.871645c-3.504744-.000265-6.865823-1.392947-9.34377-3.871645s9.34324-2.658346,9.34377-6.163355c0-7.298052-7.2975-16.396448,0-16.397ZM138.094,145.068c-36.395,1.495-66.74,58.696364-102.597,76.932364c33.236,7.095,48.75-38.659364,62.862-18.336364c11.522-22.53,25.045-41.93,39.734-58.596h.001ZM83.518,202.46c-20.988.19-37.656,63.714068-58.27,74.574068c27.854,0,45.819-48.172068,58.462-39.979068c4.33-11.652,9.16-22.615,14.41-32.924-5.12-1.19-9.963-1.71-14.602-1.67v-.001Zm-.623,36.82c-17.933,5.845-34.490076,53.052-53.268076,68.186c17.62,4.638,33.828076-36.306,40.436076-23.868c3.496-15.77,7.814-30.523,12.832-44.32v.002ZM429.98,251.689c4.245-3.593,9.206-4.735,14.057-4.84v.001c1.617-.035,3.222.044,4.783.187l-1.64,17.926c-3.928-.36-5.513.416-5.57.465-.058.048-1.035.656-.635,5.886M61.215,291.723c-10.352.13-20.692076,24.31-31.588076,30.998c12.173,6.83,9.289076,4.808,5.870076,19.004c7.3-9.105,16.855-18.323,29.158-28.48c1.016-7.043,2.19-13.9,3.506-20.585-2.082-.67-4.42-.97-6.947-.937h.001Z" transform="translate(.932775 0)"/></g></svg>
