<svg id="eigQxdEu9cR1" xmlns="http://www.w3.org/2000/svg" xmlns:xlink="http://www.w3.org/1999/xlink" viewBox="0 0 122.88 121.71" shape-rendering="geometricPrecision" text-rendering="geometricPrecision"><g><path d="M63.31,21.33l22-8.91-22-8.83" clip-rule="evenodd" fill-rule="evenodd"/><path d="M63.31,30.78v-29.04c0-2.32-3.52-2.32-3.52,0v29.04" clip-rule="evenodd" fill="#7f8279" fill-rule="evenodd"/></g><g><path d="M44.61,30.78c-.23,0-.42.19-.42.42l-.12,8.21L49.6,46.9v24.85h-6.49v-7.4h-12.47l.04-8.39l5.21-7.65-.12-8.21c0-.23-.19-.42-.42-.42h-34.81c-.23,0-.42.19-.42.42L0,48.3l5.53,7.49v65.92h24.69.12h20.12v-25.21c0-6.28,5.14-11.43,11.43-11.43v0c6.28,0,11.43,5.14,11.43,11.43v25.22h19.2.12h24.69l.35-65.76l5.21-7.65-.12-8.21c0-.23-.19-.42-.42-.42h-34.83c-.23,0-.42.19-.42.42l-.12,8.21l5.53,7.49v8.55h-12.3v7.4h-5.58v-.01l.13-24.69l5.21-7.65-.12-8.21c0-.23-.19-.42-.42-.42M62.02,38.75c2.59,0,4.69,2.1,4.69,4.69s-2.1,4.69-4.69,4.69-4.69-2.1-4.69-4.69c-.01-2.58,2.09-4.69,4.69-4.69v0Zm42.91,7.33c2.59,0,4.69,2.1,4.69,4.69s-2.1,4.69-4.69,4.69-4.69-2.1-4.69-4.69s2.1-4.69,4.69-4.69v0ZM56.67,61.65h10.69c.15,0,.27.12.27.27v9.55c0,.15-.12.27-.27.27h-10.69c-.15,0-.27-.12-.27-.27v-9.55c0-.14.12-.27.27-.27v0ZM17.95,46.08c2.59,0,4.69,2.1,4.69,4.69s-2.1,4.69-4.69,4.69-4.69-2.1-4.69-4.69c-.01-2.59,2.1-4.69,4.69-4.69v0Z" clip-rule="evenodd" fill="#7f8279" fill-rule="evenodd"/></g></svg>
