<svg id="eGa9TWFu32U1" xmlns="http://www.w3.org/2000/svg" xmlns:xlink="http://www.w3.org/1999/xlink" viewBox="0 0 512 512" shape-rendering="geometricPrecision" text-rendering="geometricPrecision"><g><path d="M403.1,19.69c-9.7-.1-19.5,4.95-16.3,15.6c6,20.14,23.7,16.73,31-.34c4.2-9.92-5.1-15.16-14.8-15.25l.1-.01ZM441.5,193.6" fill="#377d3f"/><path d="M478.4,152.4c-21,.6-22.3,18.6-7.7,30.1c17,13.2,29.9-30.7,7.7-30.1Zm-12,204.5c-15.5.1-41.5,23.1-13.8,29-3.3,38,49.1,5.5,23-14c2-11.1-2.7-15.1-9.2-15Z" fill="#377d3f"/></g><path d="M85.16,16.84c-29.3.38-53.4,25.41-42.7,70.22l40.3,11.46c3.92-16.7,20.04-27.12,35.34-29.94L120,28.12c-11.2-7.76-23.44-11.43-34.84-11.28Zm87.64,1.79c-10.2-.1-21.8,3.62-34.2,12.26l-1.8,38.02c14.7,3.29,27.5,13.58,33.4,28.11l32.4-11.85c14.8-35.76-1.3-66.25-29.8-66.54Zm118,6.71c-12.4-.14-24.2,11.9-12.9,35.55-34.2-.71-21.3,46.81,4.4,33.51-13.4,41.4,40.7,47.9,33.5,4.92c32.3,20.28,46.9-12.15,14.7-27.33c42.2-9.17,7.4-59.04-19.8-23.92-.1-15.13-10.2-22.61-19.9-22.72v-.01Zm10.3,39.21c6.3,0,11.4,5.08,11.4,11.34c0,6.27-5.1,11.34-11.4,11.34s-11.3-5.07-11.3-11.34c0-6.26,5-11.34,11.3-11.34Zm138.1,1.31c-17.4-.11-28.3,22.49,6.1,35.84-18.3,24.8,32.7,47.4,24.4,5.4c42.7-1.3,17.2-56.74-8-26.56-6.7-10.55-15.2-14.64-22.5-14.68ZM210.7,102.1l-37,13.5c-.3,11.7-4.8,22.6-12.4,31l28.3,28.8c43.7,3.5,62.4-49.3,21.1-73.3ZM32.06,103.5c-36.199,29.3,5.9,104.9,44.2,92l23.5-42.2c-13.88-10.5-19.37-21.5-19.9-36.2l-47.8-13.6ZM399.3,124.3c-15,.2-31.8,9.8-46.5,32l11.4,49.3c1.5-.1,3,0,4.5.1c12.5.9,24.5,6.3,33.4,15.6l39.4-27.7c5.4-39.9-14.8-68.7-40.8-69.3h-1.4Zm-86.2,31.6c-40.1.4-74.3,32.3-43.4,88.4l46.1.1c3.3-18.7,15.2-28.7,30.1-35.1l-11.8-50.7c-6.9-1.9-14.1-2.8-21-2.7Zm-167,1.8c-9.1,4.1-20.5,4.9-29.2,3.1L94.76,200.7c35.34,42.4,66.94,18.7,77.84-16l-26.5-27Zm298,57L412.3,237c4.8,11.9,4.9,24.8.8,36.3l36,21.3c51.6-7.4,55.5-71.5-5-79.9ZM79.66,235.6c-34.7.5-57.8,31.9-33.3,81.6l53.2,16.7c7.64-14,21.24-24.2,37.44-27.3l-3-48.8c-18.1-15.5-37.54-22.5-54.34-22.2Zm113.94,2.8c-13.1.2-27.7,6.9-40.7,22.4l2.8,45.4c13.3,2.1,25.1,9.1,33.4,19.1l39.2-22.2c15.1-35.7-6.5-65.2-34.7-64.7Zm73,24.5c-30.8,56.4,24.9,96.3,68.2,80.7l11.3-40.1C336,299.4,327,292,321.2,281.9c-3.5-6-5.5-12.3-6.4-18.8l-48.2-.2Zm137.2,26.6c-3.6,4.3-8,8-13.1,11-8.3,4.7-17.3,6.9-26.2,6.8l-12,42.6c33.6,38,90.6,1.2,86.5-39.6l-35.2-20.8ZM233,322l-34.6,19.5c5.7,15.8,2.9,34.4-5.1,47.4l30.2,31.7c67.6-28.1,48.5-74.9,9.5-98.6ZM40.46,334.9c-36.699,38.3-23,115.2,44,109.5l25.84-44.5c-14.61-13.3-19.79-30.8-16.74-48.3l-53.1-16.7ZM347.2,381.3c-8,0-16.3,7.1-19.4,25.4-23.9-30.7-58.2,4.6-20.5,26.8-47.6,24.4,2.6,57,21.9,27.5c4.3,49.5,60.8,18.2,29.1-10.8c40.2,6.6,40.1-32.2,1-31c13.6-18.7,1.2-38-12.1-37.9ZM180.8,402.8c-18.1,11.8-36,15.2-54.8,7.3L97.06,459.9C118.7,511.3,218.5,487,217.4,439.3l-.9.9-35.7-37.4Zm156.4,20.8c6.3,0,11.3,5.1,11.3,11.3c0,6.3-5,11.4-11.3,11.4s-11.3-5.1-11.3-11.4c0-6.2,5-11.3,11.3-11.3Zm108.1,7c-12.2-.4-16.2,20.1,6.4,32.9-21.5,28.8,29.4,50.7,23.8,6.8c36.7,7,9.6-36.1-8.5-20.7-7.8-13.5-15.7-18.8-21.7-19Z" fill="#d33b6a"/><g transform="translate(0 0.000001)"><path d="M119.4,87.38C104.1,91.46,95.36,106.9,99.36,122c4.04,15.3,19.44,24.2,34.64,20.1c15.2-4,24.1-19.5,20-34.7-3.4-12.9-15-21.25-27.7-21.01-2.3.1-4.9.46-6.9.99Z" fill="#ecd75e"/><path d="M365.2,224.2c-5.5,0-11,1.4-16.1,4.3-15.5,9-20.7,28.5-11.8,44c9,15.5,28.5,20.8,44,11.8c15.5-8.9,20.8-28.5,11.8-44-5.6-9.7-15.3-15.4-25.6-16.1h-2.3ZM99.56,333.9" fill="#ecd75e"/><path d="M147.3,324.2c-19.9,0-35.8,16-35.8,35.8c0,19.9,15.9,35.8,35.8,35.8c19.8,0,35.7-15.9,35.7-35.8c0-19.8-15.9-35.8-35.7-35.8ZM93.56,351.6" fill="#ecd75e"/></g></svg>
