<svg version="1.1" id="Layer_1" xmlns="http://www.w3.org/2000/svg" xmlns:xlink="http://www.w3.org/1999/xlink" x="0px" y="0px"
	 width="100%" viewBox="0 0 188 188" enable-background="new 0 0 188 188" xml:space="preserve">
<path fill="#070908" opacity="1.000000" stroke="none"
	d="
M23.814447,141.358261
	C26.462408,135.270676 30.519777,134.216293 34.903839,138.265182
	C35.604866,138.912613 36.566795,139.277542 37.714672,139.966095
	C38.182705,140.244492 38.344181,140.329849 38.744991,140.281860
	C39.797867,139.813431 40.611416,139.478333 41.751122,139.240173
	C42.897335,139.584976 43.763287,139.429535 44.863392,139.783051
	C45.137249,139.943115 45.600468,139.914856 45.809834,140.014893
	C46.406067,140.378784 46.833241,140.497299 47.630852,140.379517
	C48.430870,140.282242 48.900795,140.275772 49.720642,140.313507
	C50.502850,140.455841 50.940266,140.485626 51.682327,140.317444
	C52.427074,140.117477 52.871624,140.056137 53.655064,139.993759
	C54.145386,139.841660 54.296814,139.690628 54.734276,139.394287
	C55.020313,139.248978 55.086365,139.025223 55.199829,139.052277
	C55.601658,138.711731 55.972076,138.483994 56.712959,138.220062
	C58.871193,136.098175 59.528023,133.642258 60.020359,131.105835
	C60.531170,128.474197 61.546097,126.174957 64.572052,124.960388
	C66.187218,123.905663 68.114647,125.305130 69.018967,123.423859
	C55.032116,115.048660 41.261833,106.892426 27.417425,98.864029
	C20.304670,94.739334 13.104567,90.809982 6.491731,85.838745
	C4.559874,84.386459 3.525038,82.354897 1.356461,80.982162
	C1.000000,79.933327 1.000000,78.866661 1.000000,77.399994
	C2.947421,76.839699 2.567441,75.145531 2.921387,73.993973
	C5.026440,67.145218 9.392398,65.596092 15.279901,69.657753
	C17.981863,71.521774 20.882177,73.168365 23.308840,75.341942
	C25.811609,77.583687 27.061172,76.269447 28.023090,74.162834
	C28.895254,72.252792 29.675650,70.175644 29.875551,68.112015
	C30.208055,64.679497 31.712872,63.018723 35.211422,62.955563
	C38.915955,62.888683 40.945679,64.584488 42.032745,68.092453
	C44.089691,74.730209 45.315262,81.514801 46.223984,88.830925
	C48.622826,85.502731 47.268566,81.051224 50.192936,78.473251
	C53.538067,75.524361 57.044155,75.794556 60.719540,78.992386
	C62.528805,73.215652 62.583660,67.495712 62.924660,61.873981
	C63.143856,58.260254 63.228668,55.246937 67.925186,54.935284
	C72.372635,54.640152 75.348091,55.980709 76.052696,60.753536
	C76.270081,62.226051 76.622993,63.678566 76.982681,65.530281
	C80.072601,64.844261 77.733948,62.243950 78.746017,60.255913
	C79.944466,52.480705 81.098930,45.012722 81.957550,37.510883
	C82.413895,33.523827 83.658577,29.986742 87.940804,29.519424
	C92.123238,29.062998 93.742981,32.047611 94.443588,35.998440
	C95.327515,40.983047 96.789406,45.870178 98.116188,50.768414
	C98.557022,52.395905 98.356583,54.536667 101.568489,52.547600
	C105.389847,50.181110 108.676468,52.615265 109.957321,57.890942
	C112.171906,67.012589 113.871574,76.236847 114.917427,85.560036
	C115.234428,88.385925 115.565140,90.399101 119.158081,89.993103
	C122.079430,89.662987 123.910591,91.705002 124.786125,94.063904
	C126.374290,98.342827 127.991547,96.745995 130.050385,94.550095
	C133.776993,90.575386 135.101288,85.473381 136.856827,80.565125
	C138.676468,75.477661 144.066803,74.133621 148.121140,77.771042
	C153.435242,82.538696 153.435211,82.538696 156.066452,75.497231
	C157.841202,70.747787 160.972885,69.358627 165.258698,72.018311
	C166.911636,73.044098 167.875961,72.765594 169.213562,72.094650
	C170.684433,71.356842 172.171387,70.651154 173.644379,69.917465
	C181.553116,65.978119 186.021393,68.036827 188.667694,76.845535
	C189.000000,77.444443 189.000000,77.888893 189.000000,78.666672
	C187.476105,82.290169 185.524597,85.040070 180.989380,84.955475
	C179.237610,84.383850 178.409714,83.416641 178.028122,81.647018
	C177.994553,79.326752 179.747787,78.075363 180.051834,75.911537
	C177.941330,75.031021 176.323914,76.203194 174.689331,77.201263
	C171.528824,79.131081 168.390106,80.998436 164.403137,79.835419
	C162.520386,79.286209 161.970779,80.633583 161.216324,82.114502
	C157.851593,88.719025 152.743103,90.257538 146.486938,86.222931
	C143.274734,84.151375 142.114548,85.768311 141.619476,88.282852
	C140.330872,94.827766 136.376602,99.109200 130.995575,102.657806
	C126.333458,105.732330 125.330368,105.865929 121.319336,101.794640
	C120.524109,100.987465 119.934967,99.901917 118.648293,99.573967
	C116.638588,100.799072 116.272514,104.889282 113.284348,103.898041
	C110.453171,102.958893 110.887779,99.488579 110.284203,96.946762
	C107.747971,86.266106 107.336197,75.192719 104.004517,64.356438
	C102.716919,66.268585 101.034096,67.661980 98.510918,67.098495
	C95.865364,66.507690 94.802414,64.409790 94.033508,62.168377
	C93.387878,60.286301 93.048714,58.298294 91.864845,56.221992
	C91.280518,53.210423 91.543961,50.391567 89.929962,47.602684
	C89.188179,44.848251 88.628830,42.417641 88.510399,40.505444
	C88.231049,45.820389 86.744385,51.586658 86.387726,57.853607
	C85.803459,60.165478 85.331253,62.125134 85.338211,64.559937
	C84.882050,66.221489 84.458435,67.488480 84.499931,69.265091
	C84.745415,76.843750 82.792809,83.791435 82.372635,91.323456
	C80.981026,93.847107 82.443710,97.209099 78.861214,98.489685
	C77.902313,98.337006 77.448250,98.051636 76.871376,97.307434
	C74.107605,90.584778 73.814995,83.687233 72.417328,77.035149
	C71.665413,73.456459 71.167511,69.833176 69.804306,66.083557
	C68.583351,75.554398 67.569855,84.800400 65.555588,93.889259
	C65.339569,94.863983 65.193375,95.832565 64.782722,96.759949
	C64.157982,98.170799 63.508801,99.552574 61.725185,99.668709
	C59.681980,99.801735 58.775196,98.368675 58.143116,96.761810
	C56.925896,93.667419 57.149731,90.171646 55.261623,86.633469
	C53.866859,89.158119 53.426071,91.725220 52.239620,93.929939
	C50.139992,97.831581 47.890648,98.471352 44.110653,96.163254
	C40.211304,93.782272 38.530834,90.129578 38.322445,85.705376
	C38.142410,81.883125 37.828083,78.095718 36.111130,74.081757
	C34.896164,76.623741 33.912594,78.889793 32.559811,80.947754
	C29.615746,85.426498 27.813604,85.798828 23.004963,83.598740
	C18.661049,81.611282 15.397616,77.652824 10.238253,77.068588
	C9.534488,78.270683 9.434294,79.245483 10.221285,80.436897
	C10.584168,80.778244 10.732276,80.909073 11.296865,81.440582
	C11.993681,82.094284 12.279849,82.340530 12.821530,82.721825
	C13.242201,82.957962 13.413410,83.052017 13.843794,83.291885
	C14.660398,83.706108 15.197804,84.012909 16.042297,84.448471
	C25.329407,90.374748 35.138580,94.741905 44.341934,100.870605
	C52.771706,106.425247 61.286793,111.139282 69.642838,116.117348
	C71.765472,117.381882 73.964844,118.545181 75.797791,120.794991
	C76.990051,123.697266 76.956963,126.339851 76.288963,128.960266
	C75.594452,131.684677 73.861626,133.565018 70.930412,133.030136
	C68.035576,132.501892 66.741615,133.646652 65.651733,136.098373
	C61.775135,144.818924 55.459473,148.528427 45.909199,147.847519
	C44.565018,147.751709 43.436069,147.617767 42.252121,148.691803
	C37.532627,152.973160 36.101631,152.749039 32.420792,147.486664
	C32.135700,147.079086 31.912249,146.629150 31.496719,145.918243
	C31.123501,145.344345 30.894186,145.073654 30.356445,144.986038
	C28.090885,150.112640 27.809868,155.645432 25.623081,160.995972
	C25.367149,162.946030 24.914946,164.498993 24.421158,166.388138
	C24.048683,167.985275 23.704645,169.241684 23.256763,170.777313
	C23.061247,171.400116 22.960253,171.741364 22.878828,172.305084
	C22.882122,172.522873 22.969641,172.892273 23.085346,173.025269
	C23.201054,173.158264 23.602085,173.147507 23.807171,173.033386
	C25.382292,171.920105 26.788912,170.975494 28.535505,169.919250
	C44.391163,161.333160 59.256809,151.761459 74.638710,142.421890
	C75.074554,142.111023 75.239243,141.979080 75.621536,141.626770
	C75.990532,141.273605 76.141930,141.140823 76.748489,140.642136
	C77.353889,140.161331 77.504112,140.046432 77.879745,139.768143
	C78.256729,139.503296 78.408295,139.401871 78.790649,139.160675
	C79.328911,138.850510 79.641579,138.690262 80.184494,138.421005
	C80.559418,138.226059 80.708961,138.149643 81.079544,137.957977
	C81.593208,137.687119 81.880241,137.521805 82.363571,137.194275
	C82.701080,136.937256 82.836716,136.832764 83.181763,136.570618
	C83.535957,136.308685 83.680717,136.204407 84.049683,135.947006
	C84.758270,135.494171 85.236092,135.184235 85.980705,134.702271
	C87.442726,133.866653 88.760757,133.530136 90.359070,132.993347
	C91.708435,132.599380 92.747025,132.330811 94.116745,132.072754
	C94.648422,132.022751 94.862854,132.018814 95.397598,132.050293
	C96.138214,132.175003 96.549644,132.295090 97.257233,132.548065
	C97.761261,132.734604 97.961411,132.815048 98.456619,133.030624
	C99.317093,133.504105 99.932549,133.738144 100.833244,134.164185
	C112.904404,141.393448 124.851944,148.164932 136.918976,155.403656
	C138.103745,156.229095 139.027756,156.830566 140.309235,157.470993
	C140.819000,157.673782 141.023834,157.754684 141.529724,157.975922
	C142.029068,158.217529 142.227341,158.318787 142.719360,158.583252
	C143.204178,158.865677 143.395233,158.984909 143.855072,159.308929
	C146.443573,161.736542 149.619736,162.545837 152.463455,164.531601
	C153.124954,164.889679 153.479630,165.124435 154.071014,165.557434
	C154.648788,165.969177 154.970581,166.210846 155.556427,166.591766
	C156.005402,166.816330 156.185730,166.907730 156.639099,167.137695
	C157.472992,167.562820 158.015167,167.882980 158.841949,168.372986
	C164.442368,171.745850 169.990295,174.525620 175.754410,177.613068
	C176.485672,177.925613 176.881393,178.147583 177.572662,178.530289
	C178.721466,178.659256 180.306076,180.444962 179.895020,177.458832
	C179.169067,175.625656 178.269638,174.238235 177.674362,172.319351
	C177.428741,170.978149 176.996033,170.072815 176.629089,168.746429
	C176.017319,165.559738 176.063538,162.721939 176.236938,159.516373
	C175.572830,153.647507 174.367813,152.703476 170.323181,154.920120
	C168.478455,156.011826 166.829025,156.482483 164.674225,156.375244
	C162.820007,156.082123 161.859787,157.114502 160.722168,157.767075
	C156.272934,160.319275 153.321014,159.216782 151.630890,154.081207
	C149.656067,148.080582 148.626480,141.808258 146.669815,135.795578
	C146.175568,134.276794 146.210876,132.488998 144.409027,131.139664
	C142.749573,134.755875 142.490875,138.599152 141.464935,142.207642
	C140.116791,146.949387 137.728775,148.111069 133.363708,145.808395
	C129.357773,143.695145 125.489723,141.436874 124.351173,136.460205
	C123.901398,134.494202 122.961426,134.093521 120.767639,135.135605
	C116.133461,137.336914 107.514847,133.364273 105.681419,128.636795
	C104.962364,126.782715 105.004822,125.069359 106.633934,123.269371
	C124.912323,111.500938 143.358871,100.671791 161.851303,89.286453
	C162.295181,88.970551 162.465988,88.840439 162.894592,88.527649
	C163.504181,88.142982 163.863800,87.956245 164.490448,87.665878
	C164.914673,87.461754 165.082291,87.381569 165.497559,87.185631
	C166.068375,86.915222 166.388580,86.754639 166.928528,86.437866
	C167.299393,86.182159 167.447388,86.076416 167.819992,85.809181
	C168.358200,85.429489 168.679977,85.224106 169.272629,84.882858
	C170.513397,84.283310 171.526382,84.066902 172.919678,84.375504
	C174.067856,84.910423 174.695496,85.567596 175.436951,86.605629
	C175.681961,87.146034 175.749222,87.376839 175.836197,87.969437
	C175.815323,88.569588 175.774734,88.807945 175.596954,89.381943
	C173.846375,92.189850 171.288116,93.487183 168.868454,94.920189
	C152.423599,104.659431 136.548477,115.350700 119.671143,124.368019
	C118.647591,124.914894 117.711319,125.620636 116.578682,126.791199
	C116.297966,127.160088 116.637718,127.157898 116.807068,127.058784
	C116.976410,126.959671 117.316589,126.682816 117.484322,126.516953
	C118.004646,125.953621 118.362892,125.561386 118.973946,124.985825
	C119.912354,124.227531 120.693069,123.834671 121.923729,123.605812
	C122.982613,123.539307 123.691994,123.544586 124.756882,123.557556
	C130.620941,124.918694 130.671051,130.374725 133.245575,134.232117
	C133.624191,134.318329 133.785263,134.269318 134.089203,133.978821
	C134.869446,131.675323 134.929321,129.483948 135.582520,127.433746
	C136.849854,123.455788 139.447449,120.870216 143.721664,120.486397
	C148.091141,120.094017 150.996002,122.346298 152.636902,126.218010
	C154.511551,130.641235 156.097946,135.202026 157.021072,139.908691
	C157.780151,143.779099 159.173233,146.042206 163.579224,144.646500
	C164.500214,144.354767 165.547836,144.705490 166.771515,145.297302
	C167.332367,145.674637 167.572906,145.900620 167.760132,146.170975
	C167.961060,146.461121 168.191910,146.666138 168.482559,146.765335
	C168.552582,146.423721 168.095840,146.311279 168.169342,145.626831
	C171.789886,140.304153 176.191223,140.144684 179.711304,144.946960
	C182.508408,148.762909 184.355988,153.154724 184.436096,157.799057
	C184.556717,164.792099 186.146637,171.420135 187.977188,178.480225
	C187.959671,179.764252 187.791885,180.591278 187.251709,181.758179
	C184.716888,186.442017 181.205872,187.309708 176.998810,185.256973
	C170.134094,181.907501 163.355774,178.380890 156.230530,174.716064
	C155.750992,174.479752 155.581924,174.456375 155.303360,174.201599
	C136.029770,162.699203 116.850426,151.453995 97.718346,140.128952
	C94.912231,138.467911 92.501137,138.846939 89.910629,140.501266
	C71.313553,152.377609 52.618423,164.094589 33.445137,175.030655
	C31.006821,176.421432 28.766712,178.169250 26.294851,179.489746
	C20.551804,182.557755 15.433475,179.276932 16.036104,172.625717
	C16.587856,166.536057 17.942167,160.528168 20.068972,154.336975
	C20.329002,153.782745 20.448534,153.594727 20.759022,153.132446
	C20.742493,149.919739 22.347015,147.437958 23.096336,144.341370
	C23.637857,143.219376 23.427416,142.363297 23.814447,141.358261
z"/>
<path fill="#080B0A" opacity="1.000000" stroke="none"
	d="
M187.277802,178.655426
	C187.707214,178.436737 188.034164,178.709396 188.680557,178.991028
	C189.000000,179.444443 189.000000,179.888901 189.000000,180.666672
	C188.515930,181.268707 188.031860,181.537415 187.301132,181.970612
	C187.094772,181.138992 187.135056,180.142883 187.277802,178.655426
z"/>
<path fill="#204555" opacity="1.000000" stroke="none"
	d="
M78.636269,60.209988
	C78.873634,62.406006 79.380264,65.032166 78.640381,67.240723
	C77.909630,69.422012 77.238167,67.788147 77.034599,66.260849
	C79.017868,64.465698 77.439720,62.162411 78.636269,60.209988
z"/>
<path fill="#1A5369" opacity="1.000000" stroke="none"
	d="
M68.679184,123.443604
	C69.432610,126.633804 66.606316,124.110321 65.308334,124.914963
	C65.791008,123.464096 67.364960,124.246422 68.679184,123.443604
z"/>
<path fill="#080B0A" opacity="1.000000" stroke="none"
	d="
M23.826752,141.371582
	C23.888729,141.934219 23.738779,142.721329 23.389860,143.737183
	C23.332203,143.175949 23.473515,142.386002 23.826752,141.371582
z"/>
<path fill="#080B0A" opacity="1.000000" stroke="none"
	d="
M44.914505,139.692368
	C44.294987,139.858139 43.452724,139.773163 42.343872,139.512634
	C42.948772,139.371933 43.820267,139.406769 44.914505,139.692368
z"/>
<path fill="#080B0A" opacity="1.000000" stroke="none"
	d="
M51.658009,140.121002
	C51.572578,140.702286 51.090199,140.979813 50.247898,140.497574
	C50.491535,140.259521 50.912518,140.161377 51.658009,140.121002
z"/>
<path fill="#080B0A" opacity="1.000000" stroke="none"
	d="
M47.656487,140.146698
	C47.461124,140.772705 46.929070,140.968582 46.169395,140.293640
	C46.463478,140.078186 46.907757,140.041428 47.656487,140.146698
z"/>
<path fill="#080B0A" opacity="1.000000" stroke="none"
	d="
M56.729759,138.055862
	C56.596992,138.335236 56.206306,138.649857 55.564453,139.021912
	C55.699474,138.749924 56.085663,138.420517 56.729759,138.055862
z"/>
<path fill="#080B0A" opacity="1.000000" stroke="none"
	d="
M155.235565,174.151764
	C155.391998,174.031464 155.568619,174.130951 155.821884,174.385880
	C155.920044,174.503128 155.555862,174.580231 155.555862,174.580231
	C155.555862,174.580231 155.277283,174.333344 155.235565,174.151764
z"/>
<path fill="#080B0A" opacity="1.000000" stroke="none"
	d="
M54.794426,139.275299
	C54.852726,139.487457 54.642097,139.678467 54.191193,139.907349
	C54.109726,139.699341 54.301254,139.468979 54.794426,139.275299
z"/>
<path fill="#080B0A" opacity="1.000000" stroke="none"
	d="
M38.743206,140.119965
	C38.984322,140.148514 38.648640,140.452225 38.648640,140.452225
	C38.648640,140.452225 38.220634,140.398010 38.120934,140.278564
	C38.021229,140.159134 38.502090,140.091415 38.743206,140.119965
z"/>
<path fill="#080B0A" opacity="1.000000" stroke="none"
	d="
M20.728817,152.972870
	C20.885916,153.162430 20.752640,153.432510 20.379810,153.819595
	C20.086403,153.601257 20.185797,153.306870 20.728817,152.972870
z"/>
<path fill="#CAAD51" opacity="1.000000" stroke="none"
	d="
M91.165161,46.656075
	C92.203285,49.498024 92.869705,52.108086 93.553833,55.096722
	C94.831543,62.691086 93.947258,69.950310 93.938225,77.186829
	C93.933014,81.361763 95.143921,84.634407 98.967522,86.674042
	C100.967323,87.740799 102.160248,89.497330 103.089348,91.962708
	C103.408630,92.878410 103.509949,93.418678 103.539612,94.373871
	C104.590744,100.154884 105.707268,105.520164 107.183701,111.201355
	C107.617439,112.815109 107.549309,114.078300 107.501373,115.705017
	C107.527115,116.308922 107.545074,116.548637 107.618896,117.141815
	C108.247757,119.314438 108.859909,121.129494 108.132095,123.402802
	C105.613945,126.294792 106.499016,129.964920 110.077316,131.738373
	C112.153419,132.767319 114.382988,133.481979 116.517586,134.398422
	C121.061928,136.349487 121.219528,131.662659 123.390205,129.405426
	C124.374390,132.118454 125.373848,134.341003 125.985725,136.665588
	C127.491730,142.387085 132.985016,143.394135 137.035095,145.967743
	C138.890152,147.146530 139.312286,144.497284 139.619919,143.332016
	C140.591476,139.651794 141.304230,135.897308 141.975922,132.146271
	C142.340897,130.108047 142.950287,128.331436 145.339600,126.942177
	C148.497101,133.965408 149.853790,141.398941 151.891312,148.606125
	C152.297073,150.041428 152.635483,151.509644 152.837097,152.985611
	C153.152023,155.290955 153.972595,157.296539 156.388992,157.875473
	C158.940140,158.486694 160.428848,157.025955 161.251099,154.697861
	C161.870392,152.944366 162.689240,153.164597 163.755508,154.786285
	C165.163666,156.705582 167.416183,156.182831 169.091171,157.606003
	C169.952576,159.880051 169.461700,161.830673 167.525024,162.412643
	C165.171066,163.119995 163.876190,165.240662 161.312759,166.043365
	C159.449478,166.049805 158.051514,165.364441 156.162720,165.302231
	C155.049271,164.998627 154.397034,164.610580 153.511658,163.898041
	C148.791489,158.493301 144.226608,153.394424 144.833313,145.485336
	C143.265701,146.204254 143.471817,147.293228 143.157166,148.032181
	C141.405334,152.146439 139.466843,153.081482 135.416229,150.935349
	C131.332230,148.771515 127.226402,146.678711 122.757042,144.544861
	C121.923004,143.554520 121.652466,142.682800 121.458290,141.469742
	C121.451988,140.232407 121.180374,139.956329 120.191635,140.947769
	C118.157455,142.439423 116.243187,142.440201 114.387444,141.470169
	C110.201302,139.281982 105.852684,137.319290 102.381393,133.393585
	C101.195427,126.537704 99.658188,120.115891 97.873940,113.179131
	C96.658218,116.013794 97.163948,118.811859 96.019058,121.155579
	C95.315193,122.596489 94.944786,124.625221 92.751701,124.319489
	C90.931244,124.065720 90.824814,122.378212 90.516159,120.868698
	C88.787086,112.412285 87.347878,103.924141 87.335098,95.736298
	C87.743782,97.695877 86.940361,100.007248 86.499626,102.331642
	C84.888985,110.826035 82.839691,119.249886 81.822990,127.838455
	C81.331985,131.986237 78.269058,134.389664 76.278748,137.961243
	C75.340050,139.814407 74.064041,140.601913 72.016754,140.751648
	C69.616684,139.369431 67.733482,138.170425 66.458359,141.675064
	C65.971420,143.013397 64.586227,143.952881 63.661518,145.554459
	C58.690899,148.668289 54.463326,152.424866 48.609215,153.830627
	C46.476135,152.888168 44.588882,151.716461 44.285187,155.531265
	C42.011517,159.279404 38.996643,161.384918 34.537811,161.664841
	C32.060246,160.358627 32.944328,157.707977 31.437889,155.853653
	C30.328594,158.131607 30.939579,160.473373 30.198971,162.912064
	C29.959589,163.454254 29.837635,163.659180 29.458668,164.113342
	C28.774628,164.577255 28.324015,164.702362 27.501078,164.660309
	C25.707918,164.075333 25.323713,162.667206 24.408098,161.264008
	C26.359934,154.860336 26.507664,148.177780 29.659939,142.088196
	C30.939713,142.134964 31.288019,142.896133 31.844582,143.867584
	C32.639908,145.087723 33.244179,146.069885 33.926159,146.994736
	C37.981014,152.493637 38.374535,152.490524 41.434879,146.519958
	C42.228771,144.971115 42.746864,144.264206 44.756252,145.136948
	C51.670006,148.139816 61.824020,143.368408 64.214188,136.180084
	C64.682114,134.772812 64.907333,133.286530 65.291039,131.849121
	C65.824196,129.851852 66.636116,129.023483 68.770836,130.478424
	C72.935028,133.316589 74.660774,132.381607 74.938576,127.339584
	C75.038628,125.523666 74.985039,123.699280 75.022797,121.429482
	C73.982910,114.357986 74.547958,107.696922 74.681381,101.055771
	C74.716736,99.295944 75.195465,97.390884 77.328064,96.152039
	C77.855049,96.543114 77.928238,96.988174 78.030441,97.771042
	C78.988243,98.508591 79.667076,99.212036 80.374001,100.069031
	C81.787575,93.877846 82.935036,87.738029 83.511200,81.140305
	C83.459412,79.300476 83.637848,77.842789 83.985641,76.025665
	C84.058098,74.894058 84.282158,74.169220 84.451126,73.046371
	C84.488312,72.405472 84.496475,72.147171 84.513138,71.498146
	C84.414894,68.408539 85.750320,65.920975 85.780830,62.821442
	C86.969841,58.433403 86.264915,54.154377 88.004913,50.255428
	C88.683212,48.735512 88.969269,47.059067 91.165161,46.656075
z"/>
<path fill="#937E4D" opacity="1.000000" stroke="none"
	d="
M102.148987,92.737701
	C101.039124,90.719093 100.000534,89.084045 97.501831,88.115456
	C93.634804,86.616432 92.059898,83.327599 91.912476,79.069916
	C91.649132,71.464767 93.094444,63.989208 93.401428,55.950912
	C94.272354,57.859249 94.876793,60.277367 95.705772,62.615891
	C96.322083,64.354507 97.208076,66.182556 99.417030,66.143562
	C101.847122,66.100670 102.771332,64.346710 103.116302,62.173233
	C103.267624,61.219784 103.205276,60.125202 104.688354,59.510868
	C108.829529,73.949196 109.804031,88.976273 113.376709,103.965302
	C116.308121,101.456436 116.251694,97.877350 118.372467,95.339073
	C120.421906,96.311325 120.641029,98.495178 121.658096,100.050156
	C124.523598,104.431145 126.292976,104.656982 130.347275,101.423904
	C135.399826,97.394791 139.485947,93.051231 140.586838,86.146873
	C141.452011,80.721001 142.977066,80.559204 146.812881,84.359772
	C151.591187,89.094170 158.143143,87.301788 160.105194,80.679756
	C160.918427,77.935020 161.087219,74.787125 165.175537,78.271530
	C167.103638,79.914825 169.655975,78.221634 171.725220,77.219276
	C172.896408,76.651939 173.788147,75.510139 174.957443,74.935997
	C177.276123,73.797485 180.017410,71.707291 182.164001,74.439537
	C184.652115,77.606491 180.532700,78.327484 179.066162,80.369896
	C178.320816,81.741837 177.696411,82.781235 176.283295,83.607697
	C175.457550,83.831161 174.972290,83.851723 174.135315,83.711830
	C169.362244,82.795975 165.259796,83.591827 161.963516,86.697754
	C158.630081,89.838707 154.315186,91.239906 150.595078,93.673088
	C149.457199,94.417328 148.063660,94.365097 146.402679,93.991592
	C145.132767,93.804085 143.604065,91.381226 143.470612,94.879913
	C143.501862,95.909821 143.360672,96.575584 142.986176,97.542542
	C140.889145,100.169357 137.946259,101.098389 135.433624,103.210159
	C134.998413,103.576553 134.817871,103.716324 134.341980,104.029785
	C132.343155,104.879272 130.747543,105.736710 129.068573,107.148293
	C126.137085,108.474617 123.545998,110.334167 120.561234,107.439110
	C119.820145,106.388542 119.820145,106.388542 119.411674,107.250107
	C117.713104,111.530991 114.957146,113.877480 110.106064,113.494087
	C106.408424,109.980919 107.719528,105.421684 106.895210,101.458206
	C105.782310,96.107170 104.930252,90.655708 104.514740,85.406830
	C104.453110,87.815193 104.239944,90.414642 102.148987,92.737701
z"/>
<path fill="#947F4D" opacity="1.000000" stroke="none"
	d="
M77.758369,95.705292
	C75.227745,102.380463 76.258202,109.005974 75.919762,115.500992
	C75.835335,117.121170 75.705162,118.738953 75.320023,120.669022
	C64.701157,114.861015 54.358288,108.741821 43.842670,102.309998
	C46.043003,99.831154 48.313297,101.300468 50.435421,102.365654
	C55.249355,104.781960 59.597603,108.019257 64.727234,110.624329
	C67.337769,111.834793 69.003502,114.020393 71.644104,114.466438
	C72.356384,113.320183 71.620583,112.198509 71.911667,110.786484
	C72.187332,103.688889 70.801781,97.078712 69.987473,90.308243
	C68.454231,94.686440 67.757767,99.260170 66.553986,103.691124
	C66.112228,105.317169 66.038925,106.959167 63.926586,107.875443
	C62.543110,108.119019 61.576225,107.867401 60.278221,107.350555
	C58.828991,106.591019 57.983181,105.622673 56.576836,104.814995
	C55.607632,103.894516 55.150593,103.067841 54.729042,101.868973
	C54.463501,100.512993 53.975376,100.650894 53.081970,101.420975
	C45.041042,100.527626 38.391602,97.653984 34.305351,90.059769
	C33.965805,89.314598 33.873066,88.810509 33.534512,88.458023
	C33.479904,88.401169 33.131229,88.792297 32.832943,89.406784
	C31.646759,90.826126 30.337091,90.953674 29.056435,90.446198
	C22.337427,87.783752 15.969514,84.442482 10.050383,80.282753
	C9.220259,79.699379 9.083391,78.596802 8.404562,77.430244
	C8.269635,73.698547 9.586770,73.022575 12.512869,74.950607
	C16.532700,77.599312 20.744820,79.956284 24.763287,82.606926
	C27.307957,84.285446 28.860498,83.750488 30.412907,81.220337
	C32.689941,77.509178 34.460022,73.639984 35.248234,68.796089
	C38.281158,71.235771 38.321686,74.519806 39.072014,77.285522
	C39.889656,80.299355 40.040985,83.520103 40.239357,86.666000
	C40.358559,88.556297 40.852249,90.308784 41.681847,91.907173
	C43.073208,94.587929 45.776497,96.291908 48.423267,96.488312
	C50.485909,96.641373 50.242771,93.393051 51.132496,91.714081
	C52.235180,89.633240 52.946396,87.454941 53.290592,85.117432
	C53.471123,83.891426 53.401043,82.061401 55.201443,82.138260
	C56.924999,82.211823 56.700813,84.034698 57.017494,85.253357
	C57.766056,88.134048 58.840172,90.906418 59.168137,93.931343
	C59.357609,95.678970 59.107738,98.632286 61.481976,98.707413
	C63.519863,98.771889 63.627171,95.993462 63.885220,94.290138
	C65.424553,84.129356 66.816002,73.946167 68.261192,63.771091
	C68.417877,62.667892 67.988167,61.396797 69.809662,60.085205
	C74.533394,71.531685 74.755707,83.762573 77.758369,95.705292
z"/>
<path fill="#EFD587" opacity="1.000000" stroke="none"
	d="
M75.347160,138.276855
	C75.025757,137.540909 74.806824,136.826752 75.055542,136.575455
	C82.505829,129.047699 80.419113,118.678040 83.004494,109.716759
	C84.606079,104.165451 85.748253,98.439926 86.126534,92.615097
	C86.188507,91.660942 86.366562,90.608055 87.801491,90.016380
	C89.307549,101.155663 90.800018,112.194473 92.469200,124.540253
	C95.790794,119.693100 94.659302,115.148376 95.931671,111.232582
	C96.261208,110.218391 95.713417,108.584961 97.412895,108.593117
	C98.660751,108.599098 99.588211,109.718140 99.700607,110.909691
	C100.371086,118.017784 103.047897,124.793411 103.156509,132.418869
	C102.699593,133.553284 102.001961,133.789230 100.841904,133.763489
	C97.608086,132.127991 98.836723,129.001938 97.839310,126.596458
	C96.792801,128.401062 97.125679,130.613647 95.493790,132.399994
	C94.070724,133.038742 92.899261,133.445847 91.355637,133.855255
	C87.902382,129.936066 89.372643,124.836220 87.325768,120.398216
	C85.285126,125.681984 85.934700,131.786453 81.804131,136.580658
	C79.654915,137.677582 77.984802,139.224548 75.347160,138.276855
z"/>
<path fill="#B0A6AF" opacity="1.000000" stroke="none"
	d="
M8.038589,77.471207
	C15.332279,82.528000 23.263979,86.449364 31.890446,89.322998
	C32.728096,88.428337 33.466255,88.316986 34.603210,88.820061
	C38.638504,95.909477 45.697315,97.831390 52.434803,100.746658
	C53.554871,100.306366 54.362041,100.189644 55.531654,100.827011
	C56.134521,101.883240 56.416496,102.661491 56.848152,103.714729
	C57.675377,104.792557 58.618256,105.182785 59.752655,105.827667
	C60.764950,106.310287 61.556133,106.584259 62.624897,107.012589
	C63.840763,107.938637 65.238869,108.157341 65.780205,109.866440
	C65.853539,110.748016 65.731346,111.229836 65.205353,111.929169
	C59.904991,110.501114 55.728630,107.326500 51.285606,104.612732
	C49.204914,103.341858 46.985558,102.228508 44.077301,101.963760
	C34.212963,96.583679 24.755997,91.169983 15.113970,85.479530
	C14.621684,84.621788 14.040399,84.512451 13.284250,84.148697
	C13.085762,83.934944 13.023594,83.980324 13.028351,83.942139
	C12.562961,83.564476 11.993340,83.508026 11.259920,83.152908
	C11.060678,82.955086 10.994540,82.981529 11.017105,82.953949
	C10.856753,82.781067 10.673839,82.635773 10.256960,82.229614
	C8.179943,81.165741 7.388981,79.823273 8.038589,77.471207
z"/>
<path fill="#F5E5B5" opacity="1.000000" stroke="none"
	d="
M74.785950,138.250488
	C76.746361,137.372757 78.466026,136.706192 80.525757,135.969025
	C81.822449,135.920776 82.818649,135.754669 83.826874,136.782272
	C83.730637,137.446259 83.435524,137.806396 82.935333,138.460266
	C82.730255,138.754013 82.386208,138.573517 82.381363,138.767715
	C82.186531,138.945679 81.996559,138.929443 81.524750,138.961884
	C80.692200,139.375488 80.038879,139.476654 79.330490,140.018524
	C79.222969,140.324371 79.120903,140.131042 79.194656,140.211731
	C78.894051,140.243469 78.589928,140.372589 78.185997,140.868286
	C78.025352,141.080627 78.008476,141.013062 78.039352,141.029144
	C77.793221,141.214691 77.547287,141.421158 77.163162,141.836945
	C76.993896,142.009232 76.997383,141.995087 77.004791,141.994995
	C62.895470,149.738831 49.015301,157.888306 35.351883,166.404144
	C33.755184,167.399292 32.283482,168.418915 29.944042,167.629196
	C28.720497,166.709549 28.253548,165.810059 28.686897,164.274384
	C28.872387,163.915115 28.936745,163.957184 28.921707,163.921814
	C30.286543,162.812286 31.103157,160.865860 33.627007,161.130783
	C37.295307,159.965088 40.402790,158.339951 43.053680,155.447510
	C44.179817,153.678864 45.469425,152.747147 47.681412,152.914337
	C53.381245,151.467621 57.317909,147.429947 62.530422,144.994934
	C65.342339,143.226425 67.155464,140.549622 70.687500,139.948944
	C72.206688,139.459198 73.375954,138.960434 74.785950,138.250488
z"/>
<path fill="#9C8C74" opacity="1.000000" stroke="none"
	d="
M108.337471,123.701241
	C106.662323,122.365318 107.238960,120.345314 106.211578,118.524536
	C111.335709,114.395943 117.914833,113.250267 123.326622,109.682388
	C124.944054,108.616043 126.762428,107.698982 128.920914,106.800285
	C130.678940,105.593018 132.371338,104.874283 133.763733,103.200867
	C133.990387,102.956261 134.000610,102.999390 133.994446,102.978882
	C136.810257,101.613411 139.587616,100.184166 142.553894,98.341599
	C148.267212,93.980652 154.578583,91.437119 160.547470,88.281776
	C161.439117,87.810417 162.490204,87.965485 163.692886,88.718842
	C156.972931,94.566109 148.967041,98.540733 141.437088,103.264267
	C130.537018,110.101837 119.593643,116.870407 108.337471,123.701241
z"/>
<path fill="#EED791" opacity="1.000000" stroke="none"
	d="
M122.858734,144.131012
	C127.432800,144.619370 131.196091,146.577682 134.879410,148.877686
	C139.985519,152.066101 140.788803,151.645599 141.963852,145.922943
	C142.129639,145.115509 142.174606,144.271179 142.436417,143.498459
	C142.803192,142.416016 143.218048,141.104279 144.683258,141.316803
	C145.917328,141.495789 145.898819,142.720840 145.935776,143.701797
	C146.206619,150.892868 148.500824,157.180527 154.135468,162.356079
	C153.937866,163.701355 154.144470,164.833191 153.258789,165.978851
	C149.693192,164.342758 146.369751,162.495102 142.872864,160.339996
	C142.920105,158.851318 145.517487,159.187546 144.497757,157.212753
	C143.470459,155.223251 141.820541,155.905731 139.884949,156.243927
	C133.740921,154.859985 129.433167,150.673859 124.232002,148.170319
	C122.810623,147.486176 122.066879,146.137024 122.858734,144.131012
z"/>
<path fill="#F7E9C2" opacity="1.000000" stroke="none"
	d="
M123.086624,143.479141
	C123.097771,146.231049 124.720924,147.342560 126.574654,148.222702
	C130.898529,150.275696 134.667953,153.387268 139.642258,154.934998
	C140.378128,155.432068 140.530441,155.933502 140.261887,156.866882
	C139.308945,157.683548 138.490753,157.511063 137.341125,157.216980
	C124.765427,149.905579 112.530647,142.821426 100.117149,135.450348
	C99.589272,134.684128 99.471634,134.153503 99.821213,133.220490
	C100.833763,132.897415 101.610672,132.925430 102.776230,132.901459
	C107.088409,135.181595 111.049683,137.453430 114.916443,139.876144
	C116.416206,140.815811 117.786568,141.441895 119.763794,140.248032
	C120.676750,139.426468 121.393417,139.329254 122.448425,139.889740
	C122.818573,141.158829 122.932129,142.136307 123.086624,143.479141
z"/>
<path fill="#C8AB52" opacity="1.000000" stroke="none"
	d="
M29.677109,167.023438
	C36.943993,165.746399 41.381817,160.247971 47.191341,157.151642
	C56.864258,151.996231 66.283134,146.363144 76.641251,141.898300
	C73.117699,145.914703 68.026276,148.028046 63.435555,150.876358
	C52.323841,157.770554 41.407528,165.005371 29.354488,170.999161
	C28.595230,170.786377 28.317024,170.365311 28.155334,169.462830
	C28.252003,168.266739 28.654638,167.630127 29.677109,167.023438
z"/>
<path fill="#B2A8B1" opacity="1.000000" stroke="none"
	d="
M163.983643,88.992805
	C156.267899,90.386551 150.380890,95.456940 143.371368,99.027939
	C142.508774,99.277847 142.099594,99.132973 141.876755,98.314560
	C142.034210,97.247826 142.115204,96.544296 142.226715,95.487930
	C143.065506,93.960365 143.350143,92.146339 145.783951,92.676331
	C152.277206,92.667152 156.845200,89.070091 161.024948,85.283257
	C162.707794,83.758606 163.230316,81.808434 166.246338,82.719971
	C167.601532,83.129539 169.550720,81.652962 171.204727,80.970100
	C172.580063,80.402283 173.825104,79.932365 173.784760,82.555870
	C174.860474,83.580597 174.004700,83.936798 173.212357,84.299271
	C171.871811,84.772064 170.874084,85.311562 169.549011,85.948715
	C168.919022,86.186485 168.642044,86.366150 168.164810,86.688332
	C167.938904,86.791313 167.901718,86.906982 167.844177,86.887512
	C167.554153,87.494171 166.956192,87.471786 166.216003,87.753967
	C165.978104,87.888802 165.968826,87.961876 165.934082,87.949638
	C165.557007,88.465462 164.975372,88.480728 164.227631,88.782295
	C164.006363,88.950348 164.007263,88.999153 163.983643,88.992805
z"/>
<path fill="#FBEECA" opacity="1.000000" stroke="none"
	d="
M84.016586,137.065125
	C83.137833,136.856537 82.249924,136.626953 81.113914,136.147888
	C84.089676,130.799301 83.901459,124.765152 85.497322,119.222694
	C85.897377,117.833275 85.378151,115.230400 87.731140,115.435776
	C89.682205,115.606056 88.843063,117.852478 89.111511,119.211983
	C90.010368,123.764038 91.311836,128.264648 90.971313,133.421387
	C89.558243,134.539719 88.133003,135.221878 86.365974,135.953766
	C85.593414,136.454147 84.993874,136.481567 84.245392,136.844543
	C84.046753,137.055466 84.007439,137.044144 84.016586,137.065125
z"/>
<path fill="#D1B556" opacity="1.000000" stroke="none"
	d="
M178.735184,171.857285
	C179.652725,173.492599 180.432449,174.836624 181.309296,176.504120
	C180.960403,177.634018 180.211609,177.982300 178.947784,178.217194
	C175.929031,177.501221 173.396622,176.636841 171.910614,173.624146
	C171.657349,171.983444 171.386581,170.749588 170.765778,169.189484
	C170.346313,165.101944 170.681564,161.498825 172.608490,157.771713
	C174.353546,156.596878 175.794479,156.547424 177.599304,157.708481
	C177.995789,161.377640 178.035797,164.754517 178.137131,168.589264
	C178.646088,169.836945 178.409943,170.735016 178.735184,171.857285
z"/>
<path fill="#5DEB2B" opacity="1.000000" stroke="none"
	d="
M91.484894,46.474838
	C88.845970,51.699844 88.359489,57.086643 87.266312,62.694771
	C86.558937,63.393341 86.022629,63.522339 85.070969,63.156185
	C84.355896,61.491451 84.526314,60.051956 84.763306,58.239281
	C85.063515,50.187759 86.672699,42.722599 88.722908,35.044006
	C89.626244,38.716576 90.529587,42.389149 91.484894,46.474838
z"/>
<path fill="#7ADC34" opacity="1.000000" stroke="none"
	d="
M84.619186,80.782104
	C84.447983,89.342995 82.392754,97.379082 79.518341,105.499474
	C79.112663,103.277008 78.706993,101.054543 78.180389,98.470459
	C81.619843,97.414352 79.121178,94.197662 80.641830,92.277130
	C82.054497,88.476204 82.087471,84.744003 83.157280,80.896614
	C83.744873,80.625923 84.011490,80.597420 84.619186,80.782104
z"/>
<path fill="#F9EABE" opacity="1.000000" stroke="none"
	d="
M100.049927,132.435089
	C100.029610,133.379623 100.002357,133.889832 99.956772,134.781738
	C99.406578,134.943222 98.874741,134.723022 98.188004,134.255493
	C97.890823,133.903290 97.748535,133.798416 97.355392,133.607513
	C96.929451,133.496613 96.754356,133.471771 96.323837,133.375336
	C95.943268,133.175140 95.818130,133.046509 95.467590,132.774750
	C94.605072,129.638199 96.097115,126.849785 96.092148,123.909325
	C96.090721,123.062897 96.598228,122.297668 97.565125,122.281006
	C98.491142,122.265045 98.983345,122.982086 99.313370,123.761414
	C100.442139,126.427002 99.795845,129.254257 100.049927,132.435089
z"/>
<path fill="#DBBA55" opacity="1.000000" stroke="none"
	d="
M178.027054,157.635971
	C176.568344,158.004120 175.180893,158.007462 173.377197,158.016968
	C171.887711,158.859177 170.907959,158.545563 169.704712,157.454102
	C169.067200,156.330750 169.046158,155.525040 169.605865,154.355164
	C170.686066,152.467575 171.392654,149.654984 173.182892,150.356171
	C175.903671,151.421814 177.425461,154.261139 178.027054,157.635971
z"/>
<path fill="#A6BF41" opacity="1.000000" stroke="none"
	d="
M84.204872,80.707932
	C83.129311,84.490746 82.291321,87.987251 81.180428,91.747253
	C81.625847,84.661697 82.344177,77.312622 83.098328,69.522316
	C83.789696,67.919235 83.350861,66.626755 83.603539,65.040070
	C83.852654,62.540054 84.070244,60.413029 84.629463,58.073418
	C85.054008,59.256786 85.136925,60.652744 85.251511,62.466835
	C86.918365,65.690613 85.042976,68.612152 85.813522,71.814148
	C86.060974,72.173782 86.093956,72.534233 86.080681,72.714722
	C85.366447,73.562965 84.827087,74.334183 84.523743,75.633408
	C84.476151,77.471016 84.542488,78.947418 84.204872,80.707932
z"/>
<path fill="#A18B48" opacity="1.000000" stroke="none"
	d="
M28.811932,168.695007
	C29.012194,169.488815 29.012617,169.952774 29.014723,170.764740
	C27.190636,172.330872 25.364866,173.548996 23.254499,174.950897
	C22.785421,175.199051 22.600939,175.263412 22.246408,175.089081
	C22.077175,174.422485 22.077988,173.994614 21.952625,173.270950
	C21.826452,172.975174 21.619034,172.554977 21.590734,172.322388
	C21.891054,170.594650 22.219673,169.099503 22.773767,167.299622
	C23.801920,166.248520 24.724051,165.823959 26.229588,166.024780
	C27.653288,166.531036 28.275871,167.321091 28.811932,168.695007
z"/>
<path fill="#FDF0CB" opacity="1.000000" stroke="none"
	d="
M139.846161,157.370087
	C139.968353,156.616104 139.978256,156.154556 139.991943,155.346817
	C147.404434,148.846542 144.732971,159.878998 148.461868,160.372314
	C146.806671,160.222733 145.151489,160.073166 143.097839,159.978073
	C142.699387,160.032562 142.382889,160.038895 142.295837,159.906708
	C141.863159,159.751755 141.575638,159.610641 141.164093,159.186920
	C140.981995,159.022675 141.000000,159.000000 140.990662,159.011398
	C140.518295,158.612686 139.962692,158.287476 139.846161,157.370087
z"/>
<path fill="#D1C594" opacity="1.000000" stroke="none"
	d="
M176.063812,178.893280
	C169.942474,176.054520 164.027039,172.876816 157.923264,169.403976
	C158.893890,167.354630 160.656952,167.508179 162.822693,167.692459
	C167.978851,170.874817 172.973587,173.689423 176.063812,178.893280
z"/>
<path fill="#F5EECE" opacity="1.000000" stroke="none"
	d="
M175.958038,179.445801
	C173.067657,174.719986 167.560715,173.597458 163.960556,169.576752
	C163.850464,169.086807 163.934921,168.873123 164.306366,168.467529
	C166.830414,167.560959 168.567337,168.894714 170.718887,169.889343
	C171.511414,170.533752 172.059250,170.941895 172.709900,171.709961
	C172.556458,175.249313 176.094223,174.878723 177.563431,176.911469
	C178.563461,178.035538 178.115616,178.785950 177.195923,179.704926
	C176.918564,179.904175 176.447372,179.925903 176.447372,179.925903
	C176.447372,179.925903 176.058167,179.659393 175.958038,179.445801
z"/>
<path fill="#080B0A" opacity="1.000000" stroke="none"
	d="
M175.626312,82.917465
	C176.589844,81.969971 177.434006,81.404541 178.566956,80.735619
	C179.045959,81.968941 179.517410,83.138596 181.113251,84.020073
	C179.854645,85.395256 178.248901,86.596642 176.322235,87.895172
	C175.829391,88.135757 175.657455,88.279198 175.240631,88.192780
	C174.995728,87.962929 174.997910,87.487259 174.999420,87.249420
	C174.187485,85.640358 174.733093,84.454391 175.626312,82.917465
z"/>
<path fill="#CAB773" opacity="1.000000" stroke="none"
	d="
M177.186890,180.112061
	C177.181961,179.161514 177.445358,178.418869 177.780472,177.389282
	C178.742126,177.045761 179.632080,176.989151 180.964203,176.880066
	C182.176361,177.944977 183.963821,178.979446 182.580276,180.488327
	C181.023193,182.186462 179.120941,181.833374 177.186890,180.112061
z"/>
<path fill="#F5EECE" opacity="1.000000" stroke="none"
	d="
M163.848541,169.192261
	C162.047760,169.208344 160.329483,169.116211 158.173080,169.066467
	C157.232758,168.909103 156.730576,168.709366 156.104446,168.264862
	C155.612396,167.578003 155.456192,167.070709 155.680878,166.123108
	C157.050690,164.789993 158.402710,165.012878 160.150116,165.350754
	C162.250473,165.644928 163.750580,166.127167 164.156891,168.469818
	C164.102310,168.872482 163.931046,169.084030 163.848541,169.192261
z"/>
<path fill="#C8AB52" opacity="1.000000" stroke="none"
	d="
M26.950993,166.816986
	C25.619055,167.051804 24.666456,167.028610 23.356548,167.000137
	C23.321363,165.239044 23.643484,163.483231 24.084837,161.362488
	C25.628222,161.178757 26.600101,161.880798 26.952866,163.667435
	C27.626074,164.778091 27.740299,165.634506 26.950993,166.816986
z"/>
<path fill="#080B0A" opacity="1.000000" stroke="none"
	d="
M169.456741,154.065277
	C169.811768,154.714249 169.802887,155.429398 169.747009,156.501114
	C169.642105,157.076797 169.584183,157.295914 169.213425,157.648041
	C166.528961,158.921753 164.908798,158.264816 164.021194,155.379990
	C165.756409,155.132843 167.451874,154.792191 169.456741,154.065277
z"/>
<path fill="#FDF0CB" opacity="1.000000" stroke="none"
	d="
M156.250946,165.588440
	C156.026062,166.370102 156.012131,166.841568 155.989349,167.666565
	C155.769974,167.993317 155.559464,167.966522 155.108017,167.731659
	C154.867096,167.523605 154.425415,167.438416 154.343124,167.229095
	C153.924500,166.905167 153.588150,166.790527 153.134216,166.433136
	C152.889236,165.050308 151.411865,163.670975 153.905518,162.811386
	C154.697830,162.974991 155.177338,163.267197 155.891373,163.712799
	C156.433136,164.290421 156.545105,164.761108 156.250946,165.588440
z"/>
<path fill="#1B1E1B" opacity="1.000000" stroke="none"
	d="
M175.430664,82.626602
	C176.048767,83.844475 175.957184,85.108154 175.156311,86.659851
	C173.910172,86.757553 173.201019,86.120766 172.924225,84.614029
	C173.113724,83.899048 173.357910,83.565536 173.711792,83.057983
	C174.252884,82.828560 174.684265,82.773186 175.430664,82.626602
z"/>
<path fill="#EED791" opacity="1.000000" stroke="none"
	d="
M139.589905,157.044098
	C140.261597,157.543564 140.564728,158.009506 140.924591,158.749115
	C139.810608,158.494476 138.639908,157.966141 137.234695,157.213776
	C137.740585,156.996674 138.480988,157.003632 139.589905,157.044098
z"/>
<path fill="#080B0A" opacity="1.000000" stroke="none"
	d="
M31.995718,143.809387
	C31.430828,143.586456 30.861933,143.040863 30.154053,142.228485
	C31.987701,140.767242 31.817158,142.350647 31.995718,143.809387
z"/>
<path fill="#080B0A" opacity="1.000000" stroke="none"
	d="
M133.262619,137.384384
	C133.878418,137.058182 134.852722,137.241745 135.692810,136.126068
	C135.785828,137.456238 135.124771,138.248322 133.262619,137.384384
z"/>
<path fill="#7D6C30" opacity="1.000000" stroke="none"
	d="
M83.439354,64.992271
	C84.016159,65.933411 84.034042,67.189789 83.333023,68.756500
	C83.170654,67.826538 83.207146,66.572006 83.439354,64.992271
z"/>
<path fill="#080B0A" opacity="1.000000" stroke="none"
	d="
M178.906021,171.819153
	C177.940536,171.558014 178.130646,170.592346 178.128967,169.380585
	C178.445328,169.861359 178.692169,170.675552 178.906021,171.819153
z"/>
<path fill="#080B0A" opacity="1.000000" stroke="none"
	d="
M122.348679,124.992073
	C122.701698,123.917557 123.657768,124.048431 124.852768,124.737961
	C124.267296,124.989822 123.499832,124.994209 122.348679,124.992073
z"/>
<path fill="#080B0A" opacity="1.000000" stroke="none"
	d="
M167.140335,147.249130
	C167.465210,147.056198 167.900253,147.091995 168.658447,147.075989
	C168.787704,148.637207 168.175064,148.652542 167.140335,147.249130
z"/>
<path fill="#080B0A" opacity="1.000000" stroke="none"
	d="
M113.795029,126.133865
	C113.977646,126.463058 113.923737,126.900024 113.963051,127.656334
	C112.477638,127.803192 112.273750,127.236084 113.795029,126.133865
z"/>
<path fill="#080B0A" opacity="1.000000" stroke="none"
	d="
M115.238144,128.374283
	C115.765152,128.181656 116.510895,128.180893 117.623123,128.107941
	C117.292145,128.913483 116.451698,129.108429 115.238144,128.374283
z"/>
<path fill="#9C8C74" opacity="1.000000" stroke="none"
	d="
M166.262756,87.896606
	C166.391556,87.545189 166.805008,87.201584 167.502548,86.863014
	C167.373550,87.213509 166.960480,87.558968 166.262756,87.896606
z"/>
<path fill="#9C8C74" opacity="1.000000" stroke="none"
	d="
M164.304733,88.967468
	C164.438034,88.597298 164.869705,88.244247 165.600372,87.914299
	C165.467270,88.286469 165.035187,88.635536 164.304733,88.967468
z"/>
<path fill="#C8AB52" opacity="1.000000" stroke="none"
	d="
M79.550140,140.321472
	C79.344368,139.556427 79.865372,139.189880 80.900352,139.003036
	C80.787720,139.446564 80.332512,139.882584 79.550140,140.321472
z"/>
<path fill="#998A76" opacity="1.000000" stroke="none"
	d="
M13.219243,84.198654
	C13.616334,84.173485 14.146906,84.412018 14.803194,84.926666
	C14.403514,84.955971 13.878119,84.709167 13.219243,84.198654
z"/>
<path fill="#F5E5B5" opacity="1.000000" stroke="none"
	d="
M84.350204,137.074554
	C84.504936,136.709518 84.963120,136.363571 85.722748,136.010574
	C85.567352,136.366882 85.110512,136.730270 84.350204,137.074554
z"/>
<path fill="#998A76" opacity="1.000000" stroke="none"
	d="
M11.135114,83.264778
	C11.609031,83.110641 12.157383,83.266197 12.869421,83.662849
	C12.425256,83.794121 11.817403,83.684296 11.135114,83.264778
z"/>
<path fill="#080B0A" opacity="1.000000" stroke="none"
	d="
M118.223038,127.854553
	C118.189423,127.521896 118.358414,127.052994 118.766418,126.496063
	C118.812172,126.844788 118.618904,127.281540 118.223038,127.854553
z"/>
<path fill="#998A76" opacity="1.000000" stroke="none"
	d="
M10.101818,82.209198
	C10.313653,82.125664 10.604311,82.282555 10.967318,82.682907
	C10.753325,82.767464 10.466984,82.608551 10.101818,82.209198
z"/>
<path fill="#1B1E1B" opacity="1.000000" stroke="none"
	d="
M174.987778,88.183014
	C175.163361,87.964935 175.330978,87.966934 175.749954,87.980621
	C175.952255,88.344551 175.776047,88.613457 175.226135,88.821274
	C174.979584,88.843544 174.979828,88.403091 174.987778,88.183014
z"/>
<path fill="#080B0A" opacity="1.000000" stroke="none"
	d="
M22.126446,175.007721
	C22.076363,174.850372 22.526852,174.981369 22.748377,175.058029
	C22.969902,175.134689 22.567354,175.375488 22.567354,175.375488
	C22.567354,175.375488 22.176529,175.165070 22.126446,175.007721
z"/>
<path fill="#080B0A" opacity="1.000000" stroke="none"
	d="
M21.496071,172.210907
	C21.562435,172.089798 21.799437,172.501205 21.812944,172.738190
	C21.535563,172.847244 21.403313,172.632843 21.496071,172.210907
z"/>
<path fill="#080B0A" opacity="1.000000" stroke="none"
	d="
M96.184395,133.456421
	C96.068405,133.303757 96.321808,133.150131 96.459213,133.094666
	C96.814133,133.141052 97.031662,133.242889 97.102142,133.673630
	C96.706482,133.921936 96.488243,133.790787 96.184395,133.456421
z"/>
<path fill="#F5EECE" opacity="1.000000" stroke="none"
	d="
M154.282318,167.180542
	C154.436630,167.075104 154.588470,167.169083 154.791733,167.412659
	C154.867096,167.523605 154.545059,167.557068 154.545059,167.557068
	C154.545059,167.557068 154.303802,167.341293 154.282318,167.180542
z"/>
<path fill="#EFD587" opacity="1.000000" stroke="none"
	d="
M97.224609,134.002548
	C96.880051,133.848175 96.805008,133.693817 96.663284,133.289337
	C96.967262,133.188385 97.337914,133.337555 97.870842,133.747452
	C97.853447,134.006302 97.673782,134.004440 97.224609,134.002548
z"/>
<path fill="#C8AB52" opacity="1.000000" stroke="none"
	d="
M77.280281,142.006836
	C77.160408,141.693390 77.326920,141.377548 77.781830,141.053467
	C77.902374,141.364975 77.734520,141.684708 77.280281,142.006836
z"/>
<path fill="#080B0A" opacity="1.000000" stroke="none"
	d="
M82.442184,138.938873
	C82.376511,138.961914 82.316345,138.693573 82.316345,138.693573
	C82.316345,138.693573 82.549110,138.547653 82.639679,138.650833
	C82.730255,138.754013 82.507851,138.915833 82.442184,138.938873
z"/>
<path fill="#EED791" opacity="1.000000" stroke="none"
	d="
M141.069550,159.286987
	C141.303055,159.120102 141.624115,159.217529 142.076965,159.544754
	C141.858215,159.700134 141.507675,159.625717 141.069550,159.286987
z"/>
<path fill="#9C8C74" opacity="1.000000" stroke="none"
	d="
M168.210663,86.791702
	C168.188126,86.554070 168.437347,86.316833 168.954117,86.062973
	C168.975250,86.294937 168.728836,86.543518 168.210663,86.791702
z"/>
<path fill="#C8AB52" opacity="1.000000" stroke="none"
	d="
M78.308090,141.092255
	C78.249413,140.798004 78.473473,140.515366 78.982971,140.262573
	C79.042549,140.562897 78.816689,140.833389 78.308090,141.092255
z"/>
<path fill="#AB9A7E" opacity="1.000000" stroke="none"
	d="
M101.881493,93.233727
	C102.245872,88.965805 102.635979,85.034805 103.071808,81.108879
	C103.197807,79.973846 103.315361,78.557281 104.851204,78.636292
	C106.171715,78.704224 105.925781,80.044098 106.044334,80.975487
	C107.373245,91.415985 108.697273,101.857101 110.019211,112.731987
	C111.225471,116.296745 108.742561,116.485855 106.463570,117.086090
	C106.048126,115.655205 106.016441,114.281364 105.981720,112.495255
	C104.896935,106.568077 104.828857,100.840660 102.278229,95.256996
	C101.999466,94.478119 101.962051,94.025345 101.881493,93.233727
z"/>
<path fill="#E6CC79" opacity="1.000000" stroke="none"
	d="
M168.870819,158.131683
	C168.865112,157.445129 168.988708,157.184708 169.485687,156.928741
	C170.558792,157.208023 171.417587,157.558350 172.618652,157.965912
	C173.491821,161.687561 172.134186,165.200836 172.107941,169.223267
	C172.135223,170.107391 171.975510,170.520004 171.321167,171.002182
	C168.587692,171.432556 167.131439,168.998047 164.465836,168.921783
	C163.265213,167.975067 162.428101,167.077637 161.314087,166.036392
	C160.845673,165.773285 160.654175,165.654022 160.713791,165.307907
	C162.523956,164.783386 162.945450,163.697174 163.027435,162.272964
	C163.099426,161.021896 163.472107,159.829453 165.066086,160.856323
	C168.125610,162.827286 167.986145,159.905685 168.870819,158.131683
z"/>
<path fill="#B4ACBE" opacity="1.000000" stroke="none"
	d="
M106.060349,117.327774
	C107.351074,115.942291 108.622337,114.855553 109.954704,113.467361
	C113.216522,111.722084 116.785210,110.759399 118.234314,106.584381
	C118.799744,105.427925 119.539032,105.325966 120.723694,105.724525
	C123.393951,110.262299 125.726410,106.349297 128.402283,105.867828
	C129.301651,105.573982 129.738647,105.713470 130.026428,106.604866
	C122.757492,111.682220 115.817230,116.985939 106.477509,118.177391
	C106.068054,118.024773 106.054474,117.825645 106.060349,117.327774
z"/>
<path fill="#ECD180" opacity="1.000000" stroke="none"
	d="
M33.970329,160.756409
	C32.499256,162.104477 31.041136,162.999084 29.244843,163.890060
	C28.959473,161.413940 28.983599,158.940399 29.074217,156.469299
	C29.145983,154.512283 29.810549,152.557648 31.971090,152.549744
	C34.308300,152.541183 33.877846,154.782211 33.974689,156.346664
	C34.056026,157.660568 33.986195,158.983826 33.970329,160.756409
z"/>
<path fill="#EED383" opacity="1.000000" stroke="none"
	d="
M71.022461,139.586761
	C69.109200,142.438782 66.503639,143.896179 63.224594,144.889801
	C63.422215,142.296265 66.364243,140.912109 66.303055,137.922653
	C66.282661,136.926331 67.333649,136.192276 68.421852,136.199203
	C70.357178,136.211502 70.809555,137.637375 71.022461,139.586761
z"/>
<path fill="#A18B56" opacity="1.000000" stroke="none"
	d="
M102.037483,95.337639
	C106.577377,97.809967 104.394241,102.911034 105.889793,106.810349
	C106.380371,108.089424 105.986588,109.707687 105.987961,111.626907
	C103.933495,106.813248 103.460670,101.164284 102.037483,95.337639
z"/>
<path fill="#EFD586" opacity="1.000000" stroke="none"
	d="
M47.958519,152.622437
	C46.964581,154.311874 45.490376,154.851303 43.509636,155.091614
	C43.051464,153.583252 42.194679,151.605118 43.826096,150.735275
	C45.217468,149.993408 46.908611,150.744919 47.958519,152.622437
z"/>
<path fill="#77E434" opacity="1.000000" stroke="none"
	d="
M86.074936,71.746727
	C83.972855,69.574722 85.314270,66.590675 85.200905,63.332069
	C85.671173,62.920025 86.059181,62.955086 86.741089,63.002068
	C86.719627,65.782555 86.404259,68.551109 86.074936,71.746727
z"/>
<path fill="#D6C593" opacity="1.000000" stroke="none"
	d="
M26.711735,167.389648
	C26.699137,166.306702 26.826620,165.538406 26.975384,164.379333
	C27.414221,163.965500 27.831776,163.942429 28.560860,163.917236
	C29.170675,164.717712 29.468964,165.520294 29.905849,166.610840
	C29.776070,167.425629 29.507692,167.952454 29.125542,168.752075
	C28.044609,168.988937 27.235260,168.694916 26.711735,167.389648
z"/>
<path fill="#EED791" opacity="1.000000" stroke="none"
	d="
M122.800110,139.816040
	C122.050285,140.146591 121.395554,140.111832 120.411362,140.073151
	C120.116653,138.631378 119.835922,136.713181 121.842346,136.697403
	C123.398766,136.685150 122.877899,138.375275 122.800110,139.816040
z"/>
<path fill="#EED791" opacity="1.000000" stroke="none"
	d="
M160.638870,164.925842
	C160.964905,165.081055 160.997345,165.487823 161.017258,165.690186
	C159.647858,165.906235 158.258545,165.919907 156.454620,165.916107
	C156.053680,165.447662 156.067368,164.996674 156.103485,164.205948
	C157.521545,164.167679 158.917191,164.469162 160.638870,164.925842
z"/>
<path fill="#6AEB2F" opacity="1.000000" stroke="none"
	d="
M84.215538,80.996216
	C83.984161,79.290527 84.001022,77.586815 84.023819,75.457260
	C84.245956,74.901489 84.462143,74.771561 85.017471,74.809334
	C85.255699,76.697159 85.154770,78.417297 85.007050,80.566360
	C84.960258,80.995285 84.463776,80.998177 84.215538,80.996216
z"/>
<path fill="#8ADB39" opacity="1.000000" stroke="none"
	d="
M85.534286,74.762398
	C85.135437,74.987030 84.914246,74.997040 84.361412,75.019234
	C84.084679,74.083038 84.401855,73.315727 85.740311,72.961472
	C85.948921,73.446060 85.830437,73.996918 85.534286,74.762398
z"/>
<path fill="#AA9B8E" opacity="1.000000" stroke="none"
	d="
M141.611176,98.015991
	C142.166901,98.233719 142.380569,98.516083 142.811035,98.955429
	C140.657562,101.241539 137.933578,102.618111 134.366516,102.982033
	C135.814835,100.436249 138.579453,99.314369 141.611176,98.015991
z"/>
<path fill="#AC9B84" opacity="1.000000" stroke="none"
	d="
M145.960724,92.534805
	C144.652374,92.910217 143.986938,94.277397 142.555237,95.022240
	C142.174561,94.496475 141.991562,93.851639 142.030624,93.220551
	C142.106354,91.996681 141.419128,90.256142 142.854935,89.730873
	C144.800964,89.018967 144.827805,91.349953 145.960724,92.534805
z"/>
<path fill="#B1A6AD" opacity="1.000000" stroke="none"
	d="
M130.332184,106.934364
	C129.742416,106.701118 129.491348,106.409889 128.994293,105.958786
	C129.971359,104.383606 131.588547,103.614166 133.650085,102.985748
	C133.815826,105.052139 132.579132,106.248604 130.332184,106.934364
z"/>
<path fill="#AA9980" opacity="1.000000" stroke="none"
	d="
M121.070534,105.571251
	C120.371880,105.988838 119.676102,106.046173 118.642151,106.169113
	C118.063034,104.735565 117.743690,102.878029 119.664978,102.585999
	C121.236855,102.347069 120.909660,104.137383 121.070534,105.571251
z"/>
<path fill="#AC9B83" opacity="1.000000" stroke="none"
	d="
M65.324493,110.091110
	C64.351753,109.238808 63.702103,108.489983 62.977463,107.454056
	C64.757950,106.741379 64.800385,105.299042 65.069443,103.758713
	C65.919815,98.890419 66.986061,94.060165 67.935020,89.208588
	C68.269142,87.500397 68.873390,85.509483 70.706818,85.630188
	C72.750298,85.764717 71.897972,87.971962 72.014236,89.313782
	C72.623276,96.342613 73.153793,103.378242 73.498642,110.742287
	C69.113113,111.408035 71.617096,107.142601 69.626862,105.842827
	C66.870766,105.913696 67.963135,109.674339 65.324493,110.091110
z"/>
<path fill="#B5ADBF" opacity="1.000000" stroke="none"
	d="
M64.994415,110.352402
	C66.919098,107.651718 66.608994,102.442322 69.503906,102.649200
	C73.002899,102.899261 71.072304,107.996788 72.973831,110.813782
	C72.220253,113.328896 77.061028,115.318001 74.080086,117.060257
	C71.886520,118.342316 69.664925,115.807487 67.710297,114.385330
	C66.919632,113.810043 66.091415,113.286377 65.100861,112.458145
	C64.943420,111.690445 64.965424,111.203804 64.994415,110.352402
z"/>
<path fill="#AA997E" opacity="1.000000" stroke="none"
	d="
M34.935425,88.665787
	C34.216080,89.080498 33.522186,89.083397 32.483788,89.102554
	C32.098900,88.794044 31.998894,88.463730 32.028461,88.145462
	C32.156498,86.767334 31.483274,84.524651 33.348106,84.460495
	C35.874264,84.373589 34.647305,86.849129 34.935425,88.665787
z"/>
<path fill="#AC9B83" opacity="1.000000" stroke="none"
	d="
M55.916733,100.708313
	C55.084415,101.035110 54.316288,100.965225 53.162689,100.828384
	C53.345036,99.271980 52.465221,96.572098 54.926033,96.679749
	C56.681870,96.756561 55.839478,98.991280 55.916733,100.708313
z"/>
<path fill="#AC9B83" opacity="1.000000" stroke="none"
	d="
M59.837776,105.744370
	C58.818562,106.006134 57.648022,106.007584 57.065224,104.324005
	C58.155354,104.003654 59.060726,104.483734 59.837776,105.744370
z"/>
<path fill="#E7D8AA" opacity="1.000000" stroke="none"
	d="
M171.176544,171.342972
	C171.226700,170.787857 171.451279,170.436020 171.897491,169.855469
	C172.940414,170.062012 174.048340,170.329483 173.088074,171.844574
	C172.356277,171.859207 171.853607,171.702744 171.176544,171.342972
z"/>
<path fill="#B2A7AE" opacity="1.000000" stroke="none"
	d="
M68.200127,109.043411
	C68.561920,108.259834 68.888962,107.465050 69.577782,108.122841
	C69.826859,108.360703 69.666763,109.388557 69.350708,109.777405
	C68.785927,110.472282 68.273697,110.190361 68.200127,109.043411
z"/>
</svg>
