<svg cache-id="32735a3450d042faa7c2fdd4d111287a" id="eYpLUFVQPIn1" xmlns="http://www.w3.org/2000/svg" xmlns:xlink="http://www.w3.org/1999/xlink" viewBox="0 0 512 512" shape-rendering="geometricPrecision" text-rendering="geometricPrecision"><g transform="matrix(1.14858 0 0 1.14858-39.0375-38.0374)"><path d="M437.12,289.89l-76.434,15.288-44.99-14.998-28.706,28.703h169.457L437.12,289.89Z" fill="#52494c"/><path d="M246.252,336.883l40.36,107.635c6.022-8.242,15.748-13.635,26.652-13.635c11.916,0,22.43,6.438,28.234,16h55.53c5.804-9.562,16.32-16,28.236-16c10.424,0,19.768,4.93,25.832,12.564l26.64-106.564h-231.484Zm67.012,112c-8.39,0-15,6.61-15,15s6.61,15,15,15s15-6.61,15-15-6.61-15-15-15Zm112,0c-8.39,0-15,6.61-15,15s6.61,15,15,15s15-6.61,15-15-6.61-15-15-15Z" transform="translate(0 0.812111)" fill="#666a70"/></g><g transform="matrix(1.14858 0 0 1.14858-39.0375-38.0374)"><path d="M250.182,104.238l-18.39.71-2.694,15.61-26.578,18.75.13.866-.273-.047-3.063,17.738l6.188,1.07l4.617,30.395l31.532,5.445l14.543-27.088l6.186,1.07l3.063-17.74-.273-.046.416-.773-18.75-26.578l3.346-19.382ZM236.928,128.1l14.457,20.49-34.947-6.035l20.49-14.455Zm-20.516,32.718l28.87,4.985-7.012,13.064-19.63-3.39-2.228-14.66v.001Z" transform="translate(-.975053 0)" fill="#a15212"/></g><g transform="matrix(1.14858 0 0 1.14858-39.0375-38.0374)"><path d="M416.00696,33.117L34.264,48.517v46.012L439.15896,79.425l-24.89328-46.31l1.74128.002ZM403.61744,99.04l-43.4676,1.17l9.78,185.806l51.6136-7.71-17.926-179.266ZM172.738,107.218l-22.82.878-39.47,54.775-1.692,33.138l63.982-88.79v-.001Zm-72.40116,2.985L63.838,111.406L35.118,392.9444l49.179906,4.583581L100.33684,110.204v-.001ZM177.07,292.158l-9.42,20.725h-16.386v18h8.205l-7.275,16h-22.93v18h14.75l-8.183,18h-26.568v18h18.386l-13.636,30h-24.75v18h16.568l-8.762,19.275l16.387,7.45l12.147-26.725h143.423l-6.75-18h-128.491l13.637-30h103.605l-6.75-18h-88.673l8.18-18h73.74l-6.75-18h-58.807l7.273-16h45.535l-4.498-12h41.258l6-6h-80.113l6.035-13.276-16.387-7.45v.001Z" fill="#8a6456"/></g></svg>
