<svg id="eGoO2C60Esf1" xmlns="http://www.w3.org/2000/svg" xmlns:xlink="http://www.w3.org/1999/xlink" viewBox="0 0 512 512" shape-rendering="geometricPrecision" text-rendering="geometricPrecision">
  <g transform="matrix(1.21045 0 0 1.21045-49.62845-86.320242)">
    <path d="M41,315.44v157.04c17.678,3.434,35.344,6.476,53,9.106L94,426c4.292-6.5,12.224-9.7,20.72-9.865c12.42-.244,26.045,5.99,31.28,17.865v54.055c87.183,8.608,174.138,5.576,261-15.207v-157.41c-121.928,28.724-244.072,28.724-366,0v.002Zm329.984,87.73c6.89.014,13.016,3.185,13.016,10.185v32l-32,4v-32c0-9,10.125-14.203,18.984-14.185Zm-81.486,11.783C296.968,414.955,304,418.5,304,426v32l-32,2v-32c0-8.5,9.03-13.05,17.498-13.047ZM208,420c8,0,16,4,16,12v32h-32v-32c0-8,8-12,16-12Z" fill="#a2694c"/>
  </g>
  <g transform="matrix(1.21045 0 0 1.21045-49.62845-86.320242)">
    <path d="M220.324,73.05c-5.148.102-10.244.408-15.28.925c38.583,92.843,40.53,149.816,41.948,194.722c13.665-.22,27.327-.79,40.985-1.726-.867-86.935-37.327-165.248-67.653-193.92v-.001Zm40.545,3.663c27.632,13.237,52.446,35.57,72.437,60.955l18.207-12.98c-24.553-23.846-55.78-40.86-90.645-47.975h.001Zm-74.163.09C105.784,93.517,44.517,163.548,41.16,248.64C103.895,261,166.49,268.4,228.994,268.77c-1.395-45.53-3.087-99.25-42.287-191.967h-.001ZM402.548,215.771l-22.27,13.292c2.23,8.957,3.495,17.38,3.683,24.963c7.63-1.557,15.26-3.232,22.89-5.056-.43-11.366-1.9-22.46-4.304-33.2l.001.001ZM41,266.794v30.127c122.077,29.426,243.923,29.426,366,0v-29.6c-122.274,28.494-244.39,23.097-366-.527Z" fill="#607865"/>
  </g>
  <g transform="matrix(1.21045 0 0 1.21045-49.62845-86.320242)">
    <path d="M430.774,91.346c-1.904-.045-3.733.247-5.462.853-5.536,1.94-10,7.087-12.463,15.51-2.464,8.425-2.434,19.664,1.22,30.987c3.655,11.323,10.147,20.295,16.994,25.455c6.848,5.16,13.388,6.453,18.924,4.512c5.536-1.94,9.998-7.087,12.46-15.512c2.464-8.424,2.437-19.663-1.218-30.986-1.744-5.406-4.14-10.268-6.91-14.443-1.491972-3.410642-3.683554-6.111787-6.146-7.575-1.288-1.282-2.607-2.435-3.94-3.44-4.707-3.547-9.268-5.265-13.46-5.362l.001.001Zm5.805,8.857c1.132404-.054045,2.28713.048039,3.45.305-3.717551,3.110067-4.935785,10.185293-2.934,17.04c2.372627,8.098942,8.379084,13.086415,13.416,11.14c3.787571-1.47131,6.074118-6.556328,5.744-12.774.920128,1.941931,1.705258,3.99065,2.34,6.106c2.177428,7.347551,2.428772,15.095514.698734,21.539316s-5.299729,11.055564-9.923734,12.820684c-9.628384,3.672316-21.107128-5.751535-25.64-21.05s-.403838-30.679614,9.223-34.357c1.163164-.444036,2.378218-.701988,3.627-.77h-.001Zm-43.223,16.762l-13.67,9.744c-.292,19.73,3.38,31.84,8.604,41.048c5.153,9.08,12.31,15.71,20.147,23.537l16.1-9.61c-1.477-.884-2.917-1.846-4.305-2.892-10.227-7.708-18.465-19.618-23.152-34.14-3.023-9.367-4.227-18.796-3.723-27.688l-.001.001Zm-31.265,22.29l-64.63,46.073c5.126,19.47,9.352,43.4,10.077,66.193l84.907-50.68c-6.756-6.63-14-13.953-19.812-24.2-5.47-9.64-9.332-21.66-10.543-37.386h.001Z" fill="#777171"/>
  </g>
</svg>
