<svg id="e4MHBTFfVAc1" xmlns="http://www.w3.org/2000/svg" xmlns:xlink="http://www.w3.org/1999/xlink" viewBox="0 0 512 512" shape-rendering="geometricPrecision" text-rendering="geometricPrecision">
  <g transform="matrix(1.122214 0 0 1.122214-24.890954-35.37599)">
    <path fill="#35742a" d="M246,39.29C208.3,39.05,170,58,160.8,92.9c-46.2-32.1-139.01,45.9-68.26,95.2-93.627-5.8-103.35,116.9,43.86,70.8c15.9,18.7,43.8,30.1,73.9,34c1.1-.9,2.2-1.8,3.4-2.6-9.8-19.6-20-34.6-39.6-47h-46.8v-73.6L119,174l-19-37.1L225.9,72.5l125.9,64.4-19,37.1-8.3-4.3v16.3c12-12.2,28.4-16.7,43.7-14.5c24.1,3.6,46.9,24.4,45.7,61.1c16.7-3.1,28.7,1.1,36.6,8.4c5.3,4.8,8.9,11.4,10.7,18.7c31.3-22,14.3-64.8-37.6-60.5c14.8-55.7-39.5-107.6-95.8-98.4-6.8-41.85-44-61.28-81.8-61.51Z"/>
    <path fill="#35742a" d="M360.3,187.6c-17.4.3-34.3,14.1-36.6,42L322.5,244l-11.8-8.2c-16-11-33.6-9.3-44.7.2-11.1,9.4-15.3,26.2-5.8,44.5l5.5,10.4-11.6,1.7c-16.9,2.4-29.4,8.4-36.2,16.1-3.4,3.7-5.3,7.8-4.8,11.8.4,3.2,2.3,6.1,5.4,8.7c4.3,3.5,10.7,6.2,19.1,8c20.5,4.5,52.3,3.1,96.9-8.8l2.8-.7l2.7,1.1c40.2,17.4,72.5,22.4,96.1,20.2c14.4-1.3,25.4-5.3,32.4-10.8c5.3-4.1,8.2-9,7.6-14.1-.5-3.8-2.9-7.4-6.9-10.6-5.2-4.1-12.8-7.4-22.7-9.5l-11.2-2.3l5.6-9.9c7.1-12.7,7.8-29.8-1.7-38.6-6.3-5.8-16.9-6.9-32-1.6l-13.4,4.7l2.4-13.9c5.4-32.2-11-51.5-30.5-54.4-1.8-.3-3.6-.4-5.4-.4Z"/>
  </g>
  <g transform="matrix(1.122214 0 0 1.122214-24.890954-35.37599)">
    <path fill="#89462e" d="M225.9,86.5L116.8,142.3l7.6,14.9l101.5-52l101.5,52l7.6-14.9L225.9,86.5Zm0,35.9l-82,41.8v62.5h107.7c1.1-1.2,2.3-2.4,3.6-3.4c13.4-11.4,33.1-15.7,52.7-7.9v-51.2l-82-41.8Zm-56.6,47.7h41.3v36h-41.3v-36Zm71.9,0h41.3v36h-41.3v-36Z"/>
    <path fill="#71533D" d="M208.9,243.3c11.2,10.6,20.6,22.5,27.4,36.2c1.6-.5,3.2-1,4.9-1.4-4.3-12.7-3.9-24.6-.1-34.8h-32.2ZM337.1,345.7c-4.7,2.4-9.5,4.9-14.2,7.7-13,7.5-25.7,16.6-36.1,27.2c2.5-9.4,5.8-18.6,9.8-27.2-19.5,2.9-35.8,3.4-49,2.2-3.2,27.1-13,58.4-31.3,96.4l-2.6,5-5.8,1c-23.2,6-41.7,13-56.3,22h158.9l-28.4-24-.5-5c-1.2-10-1.4-21-.8-32h.2c8.2-22.1,28.9-38.8,50.3-51.2c9.3-5.4,18.7-10,27.6-13.8-7-2.4-14.3-5.1-21.8-8.3Z"/>
  </g>
</svg>
