<?xml version="1.0" encoding="utf-8"?>
<svg version="1.1" id="svg2" width="1057.76" height="793.32001" viewBox="0 0 207.971 209.74" xmlns="http://www.w3.org/2000/svg">
  <g id="g8" transform="matrix(1.3333333,0,0,-1.3333333,0,793.32)">
    <g id="g10" transform="scale(0.1)">
      <path d="M 1412.676 5421.49 C 1350.406 5422.35 1324.316 5481.18 1356.796 5532.82 C 1384.076 5576.17 1446.006 5582.21 1490.266 5567.04 C 1547.326 5547.5 1572.416 5481.33 1552.106 5426.92 C 1531.816 5372.51 1467.516 5341.02 1412.616 5338.63 C 1350.756 5335.96 1287.006 5353.69 1239.456 5394.22 C 1180.456 5444.49 1172.036 5538.83 1181.296 5610.2 C 1199.766 5752.6 1315.846 5840.22 1452.896 5856.25 C 1478.626 5859.24 1462.286 5841.66 1446.206 5839.77 C 1349.076 5828.42 1262.706 5767.78 1231.396 5673.14 C 1198.806 5574.55 1208.476 5438.85 1307.636 5382.62 C 1351.736 5357.62 1415.116 5344.01 1462.426 5366.01 C 1508.106 5387.23 1528.726 5436.67 1519.586 5484.09 C 1511.596 5525.67 1459.216 5573.54 1414.246 5554.51 C 1363.976 5533.24 1367.076 5439.26 1428.546 5438.41 C 1453.096 5438.07 1424.156 5421.33 1412.676 5421.49" style="fill-opacity: 1; fill-rule: nonzero; stroke: none;" id="path80" ne="0.29722681604701906"/>
      <path d="M 1030.956 5802.66 C 1031.796 5740.39 1090.646 5714.3 1142.286 5746.79 C 1185.636 5774.06 1191.666 5836 1176.506 5880.26 C 1156.966 5937.31 1090.796 5962.4 1036.386 5942.11 C 981.976 5921.8 950.476 5857.5 948.096 5802.6 C 945.406 5740.76 963.136 5676.99 1003.666 5629.45 C 1053.926 5570.44 1148.296 5562.01 1219.656 5571.28 C 1362.056 5589.76 1449.676 5705.84 1465.696 5842.87 C 1468.696 5868.61 1451.116 5852.29 1449.226 5836.19 C 1437.886 5739.06 1377.246 5652.7 1282.596 5621.39 C 1184.016 5588.79 1048.306 5598.47 992.086 5697.62 C 967.086 5741.72 953.456 5805.1 975.446 5852.42 C 996.686 5898.1 1046.126 5918.71 1093.546 5909.57 C 1135.136 5901.58 1182.986 5849.2 1163.966 5804.24 C 1142.706 5753.96 1048.716 5757.07 1047.866 5818.54 C 1047.536 5843.08 1030.786 5814.15 1030.956 5802.66" style="fill-opacity: 1; fill-rule: nonzero; stroke: none;" id="path82" ne="0.6503149180158203"/>
      <path d="M 10.866 5860.29 C 10.866 5860.29 266.696 5871.93 357.306 5871.88 C 455.106 5871.82 558.686 5866.76 651.556 5846.43 C 751.336 5824.57 838.456 5840.67 915.036 5886.9 C 939.236 5901.49 935.286 5913.06 909.516 5904.85 C 848.356 5880.1 750.316 5873.57 651.166 5880.41 C 556.306 5886.96 441.856 5892.33 351.336 5888.48 C 260.806 5884.63 10.296 5873.97 10.296 5873.97 C -1.824 5873.46 -3.854 5859.67 10.866 5860.29" style="fill-opacity: 1; fill-rule: nonzero; stroke: none;" id="path84" ne="0.8333965872626947"/>
      <path d="M 502.346 5796.09 C 469.656 5810 430.296 5820.89 332.526 5823.12 C 241.946 5825.17 10.766 5819.21 10.766 5819.21 C -3.974 5818.91 -1.634 5832.66 10.496 5832.89 C 10.496 5832.89 236.336 5838.01 326.936 5839.84 C 417.506 5841.68 518.296 5830.33 569.606 5813.3 C 578.886 5810.23 574.466 5805.28 559.946 5799.13 C 545.426 5792.97 527.276 5785.48 502.346 5796.09" style="fill-opacity: 1; fill-rule: nonzero; stroke: none;" id="path86" ne="0.6225451229022434"/>
      <path d="M 1390.526 4879.57 C 1404.446 4846.879 1415.336 4807.52 1417.556 4709.75 C 1419.606 4619.16 1413.656 4387.988 1413.656 4387.988 C 1413.346 4373.25 1427.096 4375.59 1427.336 4387.719 C 1427.336 4387.719 1432.456 4613.559 1434.276 4704.16 C 1436.126 4794.731 1424.776 4895.52 1407.746 4946.828 C 1404.666 4956.11 1399.726 4951.68 1393.576 4937.172 C 1387.416 4922.649 1379.926 4904.488 1390.526 4879.57" style="fill-opacity: 1; fill-rule: nonzero; stroke: none;" id="path88" ne="0.052554838009330584"/>
      <path d="M 819.096 5520.39 C 849.546 5563.48 823.566 5611.86 773.186 5616.38 C 730.896 5620.16 696.076 5580.88 684.086 5542.7 C 668.606 5493.48 699.906 5441.97 746.046 5427.67 C 792.206 5413.36 845.056 5441.1 873.996 5477.44 C 906.556 5518.44 926.566 5571.3 923.426 5624.88 C 919.516 5691.38 861.226 5746.06 809.366 5776.72 C 705.876 5837.91 590.036 5803.82 511.186 5718.25 C 496.386 5702.2 516.166 5704.25 525.436 5714.3 C 581.316 5774.96 664.486 5802.68 742.736 5775.05 C 824.256 5746.25 909.296 5669.25 897.126 5572.17 C 891.726 5529.01 869.186 5478.52 831.046 5457.52 C 794.256 5437.25 751.236 5448.76 724.396 5479.6 C 700.836 5506.63 695.246 5567.34 730.206 5588.28 C 769.346 5611.68 830.036 5560.82 799.976 5518.26 C 787.976 5501.29 813.476 5512.4 819.096 5520.39" style="fill-opacity: 1; fill-rule: nonzero; stroke: none;" id="path90" ne="0.4285921440617091"/>
      <path d="M 1456.946 4388.93 C 1456.946 4388.93 1468.576 4644.75 1468.526 4735.371 C 1468.476 4833.172 1463.416 4936.75 1443.086 5029.61 C 1421.226 5129.399 1437.316 5216.53 1483.546 5293.11 C 1498.136 5317.29 1509.716 5313.34 1501.506 5287.58 C 1476.756 5226.41 1470.216 5128.379 1477.066 5029.211 C 1483.626 4934.379 1488.986 4819.918 1485.136 4729.391 C 1481.276 4638.871 1470.626 4388.34 1470.626 4388.34 C 1470.106 4376.238 1456.336 4374.199 1456.946 4388.93" style="fill-opacity: 1; fill-rule: nonzero; stroke: none;" id="path92" ne="0.5623158385680136"/>
      <path d="M 1117.046 5197.16 C 1160.126 5227.61 1208.516 5201.63 1213.036 5151.25 C 1216.816 5108.969 1177.526 5074.141 1139.346 5062.129 C 1090.146 5046.66 1038.636 5077.969 1024.326 5124.121 C 1010.026 5170.281 1037.736 5223.13 1074.106 5252.05 C 1115.086 5284.62 1167.926 5304.63 1221.546 5301.49 C 1288.026 5297.58 1342.706 5239.28 1373.386 5187.418 C 1434.576 5083.949 1400.476 4968.11 1314.916 4889.238 C 1298.846 4874.442 1300.916 4894.219 1310.966 4903.481 C 1371.606 4959.379 1399.336 5042.539 1371.706 5120.801 C 1342.906 5202.33 1265.906 5287.36 1168.826 5275.18 C 1125.656 5269.79 1075.176 5247.25 1054.146 5209.11 C 1033.906 5172.32 1045.406 5129.32 1076.236 5102.461 C 1103.296 5078.91 1163.976 5073.301 1184.946 5108.27 C 1208.326 5147.41 1157.476 5208.09 1114.916 5178.051 C 1097.946 5166.051 1109.066 5191.531 1117.046 5197.16" style="fill-opacity: 1; fill-rule: nonzero; stroke: none;" id="path94" ne="0.6221230676788134"/>
    </g>
  </g>
</svg>
